<?xml version="1.0" encoding="utf-8" standalone="no"?>
<!DOCTYPE svg PUBLIC "-//W3C//DTD SVG 1.1//EN"
  "http://www.w3.org/Graphics/SVG/1.1/DTD/svg11.dtd">
<svg xmlns:xlink="http://www.w3.org/1999/xlink" width="925.696185pt" height="471.347983pt" viewBox="0 0 925.696185 471.347983" xmlns="http://www.w3.org/2000/svg" version="1.1">
 <metadata>
  <rdf:RDF xmlns:dc="http://purl.org/dc/elements/1.1/" xmlns:cc="http://creativecommons.org/ns#" xmlns:rdf="http://www.w3.org/1999/02/22-rdf-syntax-ns#">
   <cc:Work>
    <dc:type rdf:resource="http://purl.org/dc/dcmitype/StillImage"/>
    <dc:date>2026-05-19T10:07:56.309744</dc:date>
    <dc:format>image/svg+xml</dc:format>
    <dc:creator>
     <cc:Agent>
      <dc:title>Matplotlib v3.10.8, https://matplotlib.org/</dc:title>
     </cc:Agent>
    </dc:creator>
   </cc:Work>
  </rdf:RDF>
 </metadata>
 <defs>
  <style type="text/css">*{stroke-linejoin: round; stroke-linecap: butt}</style>
 </defs>
 <g id="figure_1">
  <g id="patch_1">
   <path d="M 0 471.347983 
L 925.696185 471.347983 
L 925.696185 0 
L 0 0 
z
" style="fill: #ffffff"/>
  </g>
  <g id="axes_1">
   <g id="patch_2">
    <path d="M 48.008281 436.48392 
L 467.934077 436.48392 
L 467.934077 16.558125 
L 48.008281 16.558125 
z
" style="fill: #ffffff"/>
   </g>
   <g id="patch_3">
    <path d="M 389.19799 226.521023 
L 192.357773 112.875271 
L 192.357773 340.166775 
z
" clip-path="url(#pc43a2dd152)" style="fill: #800080; opacity: 0.15; stroke: #800080; stroke-width: 0.24; stroke-linejoin: miter"/>
   </g>
   <g id="matplotlib.axis_1">
    <g id="xtick_1">
     <g id="line2d_1">
      <defs>
       <path id="mce24674c01" d="M 0 0 
L 0 3.5 
" style="stroke: #000000; stroke-width: 0.8"/>
      </defs>
      <g>
       <use xlink:href="#mce24674c01" x="48.008281" y="436.48392" style="stroke: #000000; stroke-width: 0.8"/>
      </g>
     </g>
     <g id="text_1">
      <!-- −0.8 -->
      <g transform="translate(37.081016 452.422514) scale(0.09 -0.09)">
       <defs>
        <path id="DejaVuSerif-2212" d="M 678 2259 
L 4684 2259 
L 4684 1753 
L 678 1753 
L 678 2259 
z
" transform="scale(0.015625)"/>
        <path id="DejaVuSerif-30" d="M 2034 219 
Q 2513 219 2750 744 
Q 2988 1269 2988 2328 
Q 2988 3391 2750 3916 
Q 2513 4441 2034 4441 
Q 1556 4441 1318 3916 
Q 1081 3391 1081 2328 
Q 1081 1269 1318 744 
Q 1556 219 2034 219 
z
M 2034 -91 
Q 1275 -91 848 546 
Q 422 1184 422 2328 
Q 422 3475 848 4112 
Q 1275 4750 2034 4750 
Q 2797 4750 3222 4112 
Q 3647 3475 3647 2328 
Q 3647 1184 3222 546 
Q 2797 -91 2034 -91 
z
" transform="scale(0.015625)"/>
        <path id="DejaVuSerif-2e" d="M 603 325 
Q 603 500 722 622 
Q 841 744 1019 744 
Q 1191 744 1312 622 
Q 1434 500 1434 325 
Q 1434 153 1312 31 
Q 1191 -91 1019 -91 
Q 841 -91 722 29 
Q 603 150 603 325 
z
" transform="scale(0.015625)"/>
        <path id="DejaVuSerif-38" d="M 2981 1275 
Q 2981 1775 2732 2051 
Q 2484 2328 2034 2328 
Q 1584 2328 1336 2051 
Q 1088 1775 1088 1275 
Q 1088 772 1336 495 
Q 1584 219 2034 219 
Q 2484 219 2732 495 
Q 2981 772 2981 1275 
z
M 2853 3541 
Q 2853 3966 2637 4203 
Q 2422 4441 2034 4441 
Q 1650 4441 1433 4203 
Q 1216 3966 1216 3541 
Q 1216 3113 1433 2875 
Q 1650 2638 2034 2638 
Q 2422 2638 2637 2875 
Q 2853 3113 2853 3541 
z
M 2516 2484 
Q 3047 2413 3344 2092 
Q 3641 1772 3641 1275 
Q 3641 619 3225 264 
Q 2809 -91 2034 -91 
Q 1263 -91 845 264 
Q 428 619 428 1275 
Q 428 1772 725 2092 
Q 1022 2413 1556 2484 
Q 1084 2569 832 2842 
Q 581 3116 581 3541 
Q 581 4103 968 4426 
Q 1356 4750 2034 4750 
Q 2713 4750 3100 4426 
Q 3488 4103 3488 3541 
Q 3488 3116 3236 2842 
Q 2984 2569 2516 2484 
z
" transform="scale(0.015625)"/>
       </defs>
       <use xlink:href="#DejaVuSerif-2212"/>
       <use xlink:href="#DejaVuSerif-30" transform="translate(83.789062 0)"/>
       <use xlink:href="#DejaVuSerif-2e" transform="translate(147.412109 0)"/>
       <use xlink:href="#DejaVuSerif-38" transform="translate(179.199219 0)"/>
      </g>
     </g>
    </g>
    <g id="xtick_2">
     <g id="line2d_2">
      <g>
       <use xlink:href="#mce24674c01" x="100.499006" y="436.48392" style="stroke: #000000; stroke-width: 0.8"/>
      </g>
     </g>
     <g id="text_2">
      <!-- −0.6 -->
      <g transform="translate(89.57174 452.422514) scale(0.09 -0.09)">
       <defs>
        <path id="DejaVuSerif-36" d="M 2094 219 
Q 2534 219 2771 542 
Q 3009 866 3009 1472 
Q 3009 2078 2771 2401 
Q 2534 2725 2094 2725 
Q 1647 2725 1412 2412 
Q 1178 2100 1178 1509 
Q 1178 888 1415 553 
Q 1653 219 2094 219 
z
M 1075 2569 
Q 1288 2803 1556 2918 
Q 1825 3034 2163 3034 
Q 2859 3034 3264 2615 
Q 3669 2197 3669 1472 
Q 3669 763 3233 336 
Q 2797 -91 2069 -91 
Q 1278 -91 853 498 
Q 428 1088 428 2181 
Q 428 3406 931 4078 
Q 1434 4750 2350 4750 
Q 2597 4750 2869 4703 
Q 3141 4656 3425 4563 
L 3425 3794 
L 3072 3794 
Q 3034 4109 2831 4275 
Q 2628 4441 2284 4441 
Q 1678 4441 1381 3981 
Q 1084 3522 1075 2569 
z
" transform="scale(0.015625)"/>
       </defs>
       <use xlink:href="#DejaVuSerif-2212"/>
       <use xlink:href="#DejaVuSerif-30" transform="translate(83.789062 0)"/>
       <use xlink:href="#DejaVuSerif-2e" transform="translate(147.412109 0)"/>
       <use xlink:href="#DejaVuSerif-36" transform="translate(179.199219 0)"/>
      </g>
     </g>
    </g>
    <g id="xtick_3">
     <g id="line2d_3">
      <g>
       <use xlink:href="#mce24674c01" x="152.98973" y="436.48392" style="stroke: #000000; stroke-width: 0.8"/>
      </g>
     </g>
     <g id="text_3">
      <!-- −0.4 -->
      <g transform="translate(142.062464 452.422514) scale(0.09 -0.09)">
       <defs>
        <path id="DejaVuSerif-34" d="M 2234 1581 
L 2234 4063 
L 641 1581 
L 2234 1581 
z
M 3609 0 
L 1484 0 
L 1484 331 
L 2234 331 
L 2234 1247 
L 197 1247 
L 197 1588 
L 2241 4750 
L 2859 4750 
L 2859 1581 
L 3750 1581 
L 3750 1247 
L 2859 1247 
L 2859 331 
L 3609 331 
L 3609 0 
z
" transform="scale(0.015625)"/>
       </defs>
       <use xlink:href="#DejaVuSerif-2212"/>
       <use xlink:href="#DejaVuSerif-30" transform="translate(83.789062 0)"/>
       <use xlink:href="#DejaVuSerif-2e" transform="translate(147.412109 0)"/>
       <use xlink:href="#DejaVuSerif-34" transform="translate(179.199219 0)"/>
      </g>
     </g>
    </g>
    <g id="xtick_4">
     <g id="line2d_4">
      <g>
       <use xlink:href="#mce24674c01" x="205.480455" y="436.48392" style="stroke: #000000; stroke-width: 0.8"/>
      </g>
     </g>
     <g id="text_4">
      <!-- −0.2 -->
      <g transform="translate(194.553189 452.422514) scale(0.09 -0.09)">
       <defs>
        <path id="DejaVuSerif-32" d="M 819 3553 
L 469 3553 
L 469 4384 
Q 803 4563 1142 4656 
Q 1481 4750 1806 4750 
Q 2534 4750 2956 4397 
Q 3378 4044 3378 3438 
Q 3378 2753 2422 1800 
Q 2347 1728 2309 1691 
L 1131 513 
L 3078 513 
L 3078 1088 
L 3444 1088 
L 3444 0 
L 434 0 
L 434 341 
L 1850 1753 
Q 2319 2222 2519 2614 
Q 2719 3006 2719 3438 
Q 2719 3909 2473 4175 
Q 2228 4441 1797 4441 
Q 1350 4441 1106 4219 
Q 863 3997 819 3553 
z
" transform="scale(0.015625)"/>
       </defs>
       <use xlink:href="#DejaVuSerif-2212"/>
       <use xlink:href="#DejaVuSerif-30" transform="translate(83.789062 0)"/>
       <use xlink:href="#DejaVuSerif-2e" transform="translate(147.412109 0)"/>
       <use xlink:href="#DejaVuSerif-32" transform="translate(179.199219 0)"/>
      </g>
     </g>
    </g>
    <g id="xtick_5">
     <g id="line2d_5">
      <g>
       <use xlink:href="#mce24674c01" x="257.971179" y="436.48392" style="stroke: #000000; stroke-width: 0.8"/>
      </g>
     </g>
     <g id="text_5">
      <!-- 0.0 -->
      <g transform="translate(250.814773 452.422514) scale(0.09 -0.09)">
       <use xlink:href="#DejaVuSerif-30"/>
       <use xlink:href="#DejaVuSerif-2e" transform="translate(63.623047 0)"/>
       <use xlink:href="#DejaVuSerif-30" transform="translate(95.410156 0)"/>
      </g>
     </g>
    </g>
    <g id="xtick_6">
     <g id="line2d_6">
      <g>
       <use xlink:href="#mce24674c01" x="310.461903" y="436.48392" style="stroke: #000000; stroke-width: 0.8"/>
      </g>
     </g>
     <g id="text_6">
      <!-- 0.2 -->
      <g transform="translate(303.305497 452.422514) scale(0.09 -0.09)">
       <use xlink:href="#DejaVuSerif-30"/>
       <use xlink:href="#DejaVuSerif-2e" transform="translate(63.623047 0)"/>
       <use xlink:href="#DejaVuSerif-32" transform="translate(95.410156 0)"/>
      </g>
     </g>
    </g>
    <g id="xtick_7">
     <g id="line2d_7">
      <g>
       <use xlink:href="#mce24674c01" x="362.952628" y="436.48392" style="stroke: #000000; stroke-width: 0.8"/>
      </g>
     </g>
     <g id="text_7">
      <!-- 0.4 -->
      <g transform="translate(355.796222 452.422514) scale(0.09 -0.09)">
       <use xlink:href="#DejaVuSerif-30"/>
       <use xlink:href="#DejaVuSerif-2e" transform="translate(63.623047 0)"/>
       <use xlink:href="#DejaVuSerif-34" transform="translate(95.410156 0)"/>
      </g>
     </g>
    </g>
    <g id="xtick_8">
     <g id="line2d_8">
      <g>
       <use xlink:href="#mce24674c01" x="415.443352" y="436.48392" style="stroke: #000000; stroke-width: 0.8"/>
      </g>
     </g>
     <g id="text_8">
      <!-- 0.6 -->
      <g transform="translate(408.286946 452.422514) scale(0.09 -0.09)">
       <use xlink:href="#DejaVuSerif-30"/>
       <use xlink:href="#DejaVuSerif-2e" transform="translate(63.623047 0)"/>
       <use xlink:href="#DejaVuSerif-36" transform="translate(95.410156 0)"/>
      </g>
     </g>
    </g>
    <g id="xtick_9">
     <g id="line2d_9">
      <g>
       <use xlink:href="#mce24674c01" x="467.934077" y="436.48392" style="stroke: #000000; stroke-width: 0.8"/>
      </g>
     </g>
     <g id="text_9">
      <!-- 0.8 -->
      <g transform="translate(460.77767 452.422514) scale(0.09 -0.09)">
       <use xlink:href="#DejaVuSerif-30"/>
       <use xlink:href="#DejaVuSerif-2e" transform="translate(63.623047 0)"/>
       <use xlink:href="#DejaVuSerif-38" transform="translate(95.410156 0)"/>
      </g>
     </g>
    </g>
    <g id="text_10">
     <!-- Re(λ) -->
     <g transform="translate(241.417741 467.412358) scale(0.12 -0.12)">
      <defs>
       <path id="DejaVuSerif-52" d="M 3066 2316 
Q 3284 2256 3442 2114 
Q 3600 1972 3725 1716 
L 4403 331 
L 4972 331 
L 4972 0 
L 3872 0 
L 3144 1484 
Q 2934 1916 2759 2042 
Q 2584 2169 2278 2169 
L 1581 2169 
L 1581 331 
L 2241 331 
L 2241 0 
L 353 0 
L 353 331 
L 947 331 
L 947 4331 
L 353 4331 
L 353 4666 
L 2719 4666 
Q 3400 4666 3770 4341 
Q 4141 4016 4141 3419 
Q 4141 2938 3870 2661 
Q 3600 2384 3066 2316 
z
M 1581 2503 
L 2503 2503 
Q 2975 2503 3200 2726 
Q 3425 2950 3425 3419 
Q 3425 3888 3200 4109 
Q 2975 4331 2503 4331 
L 1581 4331 
L 1581 2503 
z
" transform="scale(0.015625)"/>
       <path id="DejaVuSerif-65" d="M 3469 1600 
L 991 1600 
L 991 1575 
Q 991 903 1244 561 
Q 1497 219 1991 219 
Q 2369 219 2611 417 
Q 2853 616 2950 1006 
L 3413 1006 
Q 3275 459 2904 184 
Q 2534 -91 1931 -91 
Q 1203 -91 761 389 
Q 319 869 319 1663 
Q 319 2450 753 2931 
Q 1188 3413 1894 3413 
Q 2647 3413 3050 2948 
Q 3453 2484 3469 1600 
z
M 2791 1931 
Q 2772 2513 2545 2808 
Q 2319 3103 1894 3103 
Q 1497 3103 1269 2806 
Q 1041 2509 991 1931 
L 2791 1931 
z
" transform="scale(0.015625)"/>
       <path id="DejaVuSerif-28" d="M 2041 -997 
Q 1281 -656 893 83 
Q 506 822 506 1931 
Q 506 3044 893 3783 
Q 1281 4522 2041 4863 
L 2041 4556 
Q 1559 4225 1350 3623 
Q 1141 3022 1141 1931 
Q 1141 844 1350 242 
Q 1559 -359 2041 -691 
L 2041 -997 
z
" transform="scale(0.015625)"/>
       <path id="DejaVuSerif-3bb" d="M 1663 4084 
Q 1547 4372 1441 4466 
Q 1331 4563 1166 4563 
Q 978 4563 891 4472 
Q 800 4378 781 4166 
L 488 4166 
L 488 4800 
Q 644 4847 797 4872 
Q 953 4897 1100 4897 
Q 1447 4897 1638 4753 
Q 1828 4613 1984 4225 
L 3506 334 
L 3878 334 
L 3878 0 
L 2631 0 
L 2631 334 
L 3128 334 
L 2244 2628 
L 1259 334 
L 1791 334 
L 1791 0 
L 263 0 
L 263 334 
L 641 334 
L 1931 3388 
L 1663 4084 
z
" transform="scale(0.015625)"/>
       <path id="DejaVuSerif-29" d="M 453 -997 
L 453 -691 
Q 934 -359 1145 242 
Q 1356 844 1356 1931 
Q 1356 3022 1145 3623 
Q 934 4225 453 4556 
L 453 4863 
Q 1216 4522 1603 3783 
Q 1991 3044 1991 1931 
Q 1991 822 1603 83 
Q 1216 -656 453 -997 
z
" transform="scale(0.015625)"/>
      </defs>
      <use xlink:href="#DejaVuSerif-52"/>
      <use xlink:href="#DejaVuSerif-65" transform="translate(75.292969 0)"/>
      <use xlink:href="#DejaVuSerif-28" transform="translate(134.472656 0)"/>
      <use xlink:href="#DejaVuSerif-3bb" transform="translate(173.486328 0)"/>
      <use xlink:href="#DejaVuSerif-29" transform="translate(236.865234 0)"/>
     </g>
    </g>
   </g>
   <g id="matplotlib.axis_2">
    <g id="ytick_1">
     <g id="line2d_10">
      <defs>
       <path id="m1127fce10d" d="M 0 0 
L -3.5 0 
" style="stroke: #000000; stroke-width: 0.8"/>
      </defs>
      <g>
       <use xlink:href="#m1127fce10d" x="48.008281" y="436.48392" style="stroke: #000000; stroke-width: 0.8"/>
      </g>
     </g>
     <g id="text_11">
      <!-- −0.8 -->
      <g transform="translate(17.05375 439.903217) scale(0.09 -0.09)">
       <use xlink:href="#DejaVuSerif-2212"/>
       <use xlink:href="#DejaVuSerif-30" transform="translate(83.789062 0)"/>
       <use xlink:href="#DejaVuSerif-2e" transform="translate(147.412109 0)"/>
       <use xlink:href="#DejaVuSerif-38" transform="translate(179.199219 0)"/>
      </g>
     </g>
    </g>
    <g id="ytick_2">
     <g id="line2d_11">
      <g>
       <use xlink:href="#m1127fce10d" x="48.008281" y="383.993196" style="stroke: #000000; stroke-width: 0.8"/>
      </g>
     </g>
     <g id="text_12">
      <!-- −0.6 -->
      <g transform="translate(17.05375 387.412493) scale(0.09 -0.09)">
       <use xlink:href="#DejaVuSerif-2212"/>
       <use xlink:href="#DejaVuSerif-30" transform="translate(83.789062 0)"/>
       <use xlink:href="#DejaVuSerif-2e" transform="translate(147.412109 0)"/>
       <use xlink:href="#DejaVuSerif-36" transform="translate(179.199219 0)"/>
      </g>
     </g>
    </g>
    <g id="ytick_3">
     <g id="line2d_12">
      <g>
       <use xlink:href="#m1127fce10d" x="48.008281" y="331.502472" style="stroke: #000000; stroke-width: 0.8"/>
      </g>
     </g>
     <g id="text_13">
      <!-- −0.4 -->
      <g transform="translate(17.05375 334.921768) scale(0.09 -0.09)">
       <use xlink:href="#DejaVuSerif-2212"/>
       <use xlink:href="#DejaVuSerif-30" transform="translate(83.789062 0)"/>
       <use xlink:href="#DejaVuSerif-2e" transform="translate(147.412109 0)"/>
       <use xlink:href="#DejaVuSerif-34" transform="translate(179.199219 0)"/>
      </g>
     </g>
    </g>
    <g id="ytick_4">
     <g id="line2d_13">
      <g>
       <use xlink:href="#m1127fce10d" x="48.008281" y="279.011747" style="stroke: #000000; stroke-width: 0.8"/>
      </g>
     </g>
     <g id="text_14">
      <!-- −0.2 -->
      <g transform="translate(17.05375 282.431044) scale(0.09 -0.09)">
       <use xlink:href="#DejaVuSerif-2212"/>
       <use xlink:href="#DejaVuSerif-30" transform="translate(83.789062 0)"/>
       <use xlink:href="#DejaVuSerif-2e" transform="translate(147.412109 0)"/>
       <use xlink:href="#DejaVuSerif-32" transform="translate(179.199219 0)"/>
      </g>
     </g>
    </g>
    <g id="ytick_5">
     <g id="line2d_14">
      <g>
       <use xlink:href="#m1127fce10d" x="48.008281" y="226.521023" style="stroke: #000000; stroke-width: 0.8"/>
      </g>
     </g>
     <g id="text_15">
      <!-- 0.0 -->
      <g transform="translate(24.595469 229.94032) scale(0.09 -0.09)">
       <use xlink:href="#DejaVuSerif-30"/>
       <use xlink:href="#DejaVuSerif-2e" transform="translate(63.623047 0)"/>
       <use xlink:href="#DejaVuSerif-30" transform="translate(95.410156 0)"/>
      </g>
     </g>
    </g>
    <g id="ytick_6">
     <g id="line2d_15">
      <g>
       <use xlink:href="#m1127fce10d" x="48.008281" y="174.030298" style="stroke: #000000; stroke-width: 0.8"/>
      </g>
     </g>
     <g id="text_16">
      <!-- 0.2 -->
      <g transform="translate(24.595469 177.449595) scale(0.09 -0.09)">
       <use xlink:href="#DejaVuSerif-30"/>
       <use xlink:href="#DejaVuSerif-2e" transform="translate(63.623047 0)"/>
       <use xlink:href="#DejaVuSerif-32" transform="translate(95.410156 0)"/>
      </g>
     </g>
    </g>
    <g id="ytick_7">
     <g id="line2d_16">
      <g>
       <use xlink:href="#m1127fce10d" x="48.008281" y="121.539574" style="stroke: #000000; stroke-width: 0.8"/>
      </g>
     </g>
     <g id="text_17">
      <!-- 0.4 -->
      <g transform="translate(24.595469 124.958871) scale(0.09 -0.09)">
       <use xlink:href="#DejaVuSerif-30"/>
       <use xlink:href="#DejaVuSerif-2e" transform="translate(63.623047 0)"/>
       <use xlink:href="#DejaVuSerif-34" transform="translate(95.410156 0)"/>
      </g>
     </g>
    </g>
    <g id="ytick_8">
     <g id="line2d_17">
      <g>
       <use xlink:href="#m1127fce10d" x="48.008281" y="69.048849" style="stroke: #000000; stroke-width: 0.8"/>
      </g>
     </g>
     <g id="text_18">
      <!-- 0.6 -->
      <g transform="translate(24.595469 72.468146) scale(0.09 -0.09)">
       <use xlink:href="#DejaVuSerif-30"/>
       <use xlink:href="#DejaVuSerif-2e" transform="translate(63.623047 0)"/>
       <use xlink:href="#DejaVuSerif-36" transform="translate(95.410156 0)"/>
      </g>
     </g>
    </g>
    <g id="ytick_9">
     <g id="line2d_18">
      <g>
       <use xlink:href="#m1127fce10d" x="48.008281" y="16.558125" style="stroke: #000000; stroke-width: 0.8"/>
      </g>
     </g>
     <g id="text_19">
      <!-- 0.8 -->
      <g transform="translate(24.595469 19.977422) scale(0.09 -0.09)">
       <use xlink:href="#DejaVuSerif-30"/>
       <use xlink:href="#DejaVuSerif-2e" transform="translate(63.623047 0)"/>
       <use xlink:href="#DejaVuSerif-38" transform="translate(95.410156 0)"/>
      </g>
     </g>
    </g>
    <g id="text_20">
     <!-- Im(λ) -->
     <g transform="translate(10.558125 243.065085) rotate(-90) scale(0.12 -0.12)">
      <defs>
       <path id="DejaVuSerif-49" d="M 1581 331 
L 2175 331 
L 2175 0 
L 353 0 
L 353 331 
L 947 331 
L 947 4331 
L 353 4331 
L 353 4666 
L 2175 4666 
L 2175 4331 
L 1581 4331 
L 1581 331 
z
" transform="scale(0.015625)"/>
       <path id="DejaVuSerif-6d" d="M 3316 2675 
Q 3481 3041 3739 3227 
Q 3997 3413 4341 3413 
Q 4863 3413 5119 3089 
Q 5375 2766 5375 2113 
L 5375 331 
L 5894 331 
L 5894 0 
L 4300 0 
L 4300 331 
L 4800 331 
L 4800 2047 
Q 4800 2556 4650 2772 
Q 4500 2988 4153 2988 
Q 3769 2988 3567 2697 
Q 3366 2406 3366 1850 
L 3366 331 
L 3866 331 
L 3866 0 
L 2291 0 
L 2291 331 
L 2791 331 
L 2791 2069 
Q 2791 2566 2641 2777 
Q 2491 2988 2144 2988 
Q 1759 2988 1557 2697 
Q 1356 2406 1356 1850 
L 1356 331 
L 1856 331 
L 1856 0 
L 263 0 
L 263 331 
L 781 331 
L 781 2994 
L 231 2994 
L 231 3322 
L 1356 3322 
L 1356 2731 
Q 1516 3063 1762 3238 
Q 2009 3413 2322 3413 
Q 2709 3413 2968 3220 
Q 3228 3028 3316 2675 
z
" transform="scale(0.015625)"/>
      </defs>
      <use xlink:href="#DejaVuSerif-49"/>
      <use xlink:href="#DejaVuSerif-6d" transform="translate(39.501953 0)"/>
      <use xlink:href="#DejaVuSerif-28" transform="translate(134.326172 0)"/>
      <use xlink:href="#DejaVuSerif-3bb" transform="translate(173.339844 0)"/>
      <use xlink:href="#DejaVuSerif-29" transform="translate(236.71875 0)"/>
     </g>
    </g>
   </g>
   <g id="line2d_19">
    <path d="M 520.424801 226.521023 
L 519.896397 209.875185 
L 518.313313 193.296375 
L 515.681922 176.851348 
L 512.012822 160.606324 
L 507.320785 144.626715 
L 501.624706 128.976865 
L 494.947519 113.719791 
L 487.316113 98.916928 
L 478.761216 84.627882 
L 469.317275 70.910189 
L 459.022318 57.819086 
L 447.917799 45.407287 
L 436.048432 33.724768 
L 423.46201 22.818572 
L 410.209216 12.732614 
L 396.343413 3.507506 
L 388.536184 -1 
M 127.172745 -1 
L 126.744368 -0.770481 
L 112.592852 8.010049 
L 99.026723 17.670445 
L 86.100607 28.171809 
L 73.866554 39.471856 
L 62.373825 51.525083 
L 51.668697 64.282958 
L 41.794277 77.694107 
L 32.790324 91.704531 
L 24.693096 106.257812 
L 17.535196 121.295351 
L 11.345447 136.756597 
L 6.148773 152.579293 
L 1.966098 168.699725 
L -1 184.089304 
M -1 268.952741 
L 1.966098 284.34232 
L 6.148773 300.462753 
L 11.345447 316.285448 
L 17.535196 331.746694 
L 24.693096 346.784233 
L 32.790324 361.337515 
L 41.794277 375.347938 
L 51.668697 388.759088 
L 62.373825 401.516962 
L 73.866554 413.570189 
L 86.100607 424.870236 
L 99.026723 435.3716 
L 112.592852 445.031997 
L 126.744368 453.812527 
L 141.424288 461.677834 
L 156.573501 468.596248 
L 166.393648 472.347983 
M 349.740513 472.347983 
L 351.637261 471.691512 
L 366.998354 465.257235 
L 381.920433 457.861651 
L 396.343413 449.53454 
L 410.209216 440.309432 
L 423.46201 430.223474 
L 436.048432 419.317277 
L 447.917799 407.634759 
L 459.022318 395.222959 
L 469.317275 382.131856 
L 478.761216 368.414164 
L 487.316113 354.125117 
L 494.947519 339.322254 
L 501.624706 324.06518 
L 507.320785 308.415331 
L 512.012822 292.435722 
L 515.681922 276.190697 
L 518.313313 259.745671 
L 519.896397 243.16686 
L 520.424801 226.521023 
" clip-path="url(#pc43a2dd152)" style="fill: none; stroke-dasharray: 3.7,1.6; stroke-dashoffset: 0; stroke: #000000; stroke-opacity: 0.3"/>
   </g>
   <g id="line2d_20">
    <path d="M 389.19799 226.521023 
L 388.933788 218.198104 
L 388.142246 209.908699 
L 386.826551 201.686185 
L 384.992 193.563673 
L 382.645982 185.573869 
L 379.797942 177.748944 
L 376.459349 170.120407 
L 372.643646 162.718975 
L 368.366197 155.574452 
L 363.644227 148.715606 
L 358.496748 142.170055 
L 352.944489 135.964155 
L 347.009805 130.122895 
L 340.716595 124.669797 
L 334.090197 119.626818 
L 327.157296 115.014264 
L 319.945806 110.850709 
L 312.484766 107.152917 
L 304.80422 103.935778 
L 296.935093 101.212247 
L 288.909072 98.99329 
L 280.758476 97.287842 
L 272.516122 96.10277 
L 264.215202 95.442847 
L 255.889139 95.310729 
L 247.57146 95.706949 
L 239.295657 96.629911 
L 231.095053 98.075899 
L 223.00267 100.03909 
L 215.051093 102.511579 
L 207.27234 105.48341 
L 199.697733 108.942617 
L 192.357773 112.875271 
L 185.282015 117.265536 
L 178.498951 122.095734 
L 172.035893 127.346416 
L 165.918866 132.996439 
L 160.172502 139.023053 
L 154.819938 145.40199 
L 149.882728 152.107565 
L 145.380752 159.112777 
L 141.332137 166.389418 
L 137.753188 173.908187 
L 134.658313 181.63881 
L 132.059976 189.550158 
L 129.968639 197.610374 
L 128.392722 205.787003 
L 127.338573 214.047121 
L 126.810435 222.357467 
L 126.810435 230.684578 
L 127.338573 238.994924 
L 128.392722 247.255042 
L 129.968639 255.431671 
L 132.059976 263.491888 
L 134.658313 271.403235 
L 137.753188 279.133858 
L 141.332137 286.652628 
L 145.380752 293.929269 
L 149.882728 300.93448 
L 154.819938 307.640055 
L 160.172502 314.018992 
L 165.918866 320.045606 
L 172.035893 325.695629 
L 178.498951 330.946311 
L 185.282015 335.77651 
L 192.357773 340.166775 
L 199.697733 344.099428 
L 207.27234 347.558635 
L 215.051093 350.530467 
L 223.00267 353.002956 
L 231.095053 354.966146 
L 239.295657 356.412134 
L 247.57146 357.335096 
L 255.889139 357.731316 
L 264.215202 357.599198 
L 272.516122 356.939275 
L 280.758476 355.754204 
L 288.909072 354.048756 
L 296.935093 351.829799 
L 304.80422 349.106268 
L 312.484766 345.889129 
L 319.945806 342.191337 
L 327.157296 338.027781 
L 334.090197 333.415227 
L 340.716595 328.372248 
L 347.009805 322.91915 
L 352.944489 317.077891 
L 358.496748 310.871991 
L 363.644227 304.32644 
L 368.366197 297.467593 
L 372.643646 290.32307 
L 376.459349 282.921638 
L 379.797942 275.293102 
L 382.645982 267.468177 
L 384.992 259.478372 
L 386.826551 251.35586 
L 388.142246 243.133347 
L 388.933788 234.843941 
L 389.19799 226.521023 
" clip-path="url(#pc43a2dd152)" style="fill: none; stroke: #0000ff; stroke-width: 2; stroke-linecap: square"/>
   </g>
   <g id="line2d_21">
    <defs>
     <path id="m8b6c8e0584" d="M 0 10 
C 2.652031 10 5.195799 8.946337 7.071068 7.071068 
C 8.946337 5.195799 10 2.652031 10 0 
C 10 -2.652031 8.946337 -5.195799 7.071068 -7.071068 
C 5.195799 -8.946337 2.652031 -10 0 -10 
C -2.652031 -10 -5.195799 -8.946337 -7.071068 -7.071068 
C -8.946337 -5.195799 -10 -2.652031 -10 0 
C -10 2.652031 -8.946337 5.195799 -7.071068 7.071068 
C -5.195799 8.946337 -2.652031 10 0 10 
z
" style="stroke: #000000; stroke-width: 2"/>
    </defs>
    <g clip-path="url(#pc43a2dd152)">
     <use xlink:href="#m8b6c8e0584" x="389.19799" y="226.521023" style="fill: #ff0000; stroke: #000000; stroke-width: 2"/>
    </g>
   </g>
   <g id="line2d_22">
    <path d="M 257.971179 226.521023 
L 389.19799 226.521023 
" clip-path="url(#pc43a2dd152)" style="fill: none; stroke: #ff0000; stroke-opacity: 0.5; stroke-width: 2; stroke-linecap: square"/>
   </g>
   <g id="line2d_23">
    <defs>
     <path id="me6ab7e6185" d="M 0 10 
C 2.652031 10 5.195799 8.946337 7.071068 7.071068 
C 8.946337 5.195799 10 2.652031 10 0 
C 10 -2.652031 8.946337 -5.195799 7.071068 -7.071068 
C 5.195799 -8.946337 2.652031 -10 0 -10 
C -2.652031 -10 -5.195799 -8.946337 -7.071068 -7.071068 
C -8.946337 -5.195799 -10 -2.652031 -10 0 
C -10 2.652031 -8.946337 5.195799 -7.071068 7.071068 
C -5.195799 8.946337 -2.652031 10 0 10 
z
" style="stroke: #000000; stroke-width: 2"/>
    </defs>
    <g clip-path="url(#pc43a2dd152)">
     <use xlink:href="#me6ab7e6185" x="192.357773" y="112.875271" style="fill: #008000; stroke: #000000; stroke-width: 2"/>
    </g>
   </g>
   <g id="line2d_24">
    <path d="M 257.971179 226.521023 
L 192.357773 112.875271 
" clip-path="url(#pc43a2dd152)" style="fill: none; stroke: #008000; stroke-opacity: 0.5; stroke-width: 2; stroke-linecap: square"/>
   </g>
   <g id="line2d_25">
    <defs>
     <path id="mac2f9921ba" d="M 0 10 
C 2.652031 10 5.195799 8.946337 7.071068 7.071068 
C 8.946337 5.195799 10 2.652031 10 0 
C 10 -2.652031 8.946337 -5.195799 7.071068 -7.071068 
C 5.195799 -8.946337 2.652031 -10 0 -10 
C -2.652031 -10 -5.195799 -8.946337 -7.071068 -7.071068 
C -8.946337 -5.195799 -10 -2.652031 -10 0 
C -10 2.652031 -8.946337 5.195799 -7.071068 7.071068 
C -5.195799 8.946337 -2.652031 10 0 10 
z
" style="stroke: #000000; stroke-width: 2"/>
    </defs>
    <g clip-path="url(#pc43a2dd152)">
     <use xlink:href="#mac2f9921ba" x="192.357773" y="340.166775" style="fill: #0000ff; stroke: #000000; stroke-width: 2"/>
    </g>
   </g>
   <g id="line2d_26">
    <path d="M 257.971179 226.521023 
L 192.357773 340.166775 
" clip-path="url(#pc43a2dd152)" style="fill: none; stroke: #0000ff; stroke-opacity: 0.5; stroke-width: 2; stroke-linecap: square"/>
   </g>
   <g id="line2d_27">
    <path d="M 389.19799 226.521023 
L 192.357773 112.875271 
L 192.357773 340.166775 
L 389.19799 226.521023 
" clip-path="url(#pc43a2dd152)" style="fill: none; stroke-dasharray: 7.4,3.2; stroke-dashoffset: 0; stroke: #800080; stroke-width: 2"/>
   </g>
   <g id="line2d_28">
    <path d="M 48.008281 226.521023 
L 467.934077 226.521023 
" clip-path="url(#pc43a2dd152)" style="fill: none; stroke: #808080; stroke-width: 0.5; stroke-linecap: square"/>
   </g>
   <g id="line2d_29">
    <path d="M 257.971179 436.48392 
L 257.971179 16.558125 
" clip-path="url(#pc43a2dd152)" style="fill: none; stroke: #808080; stroke-width: 0.5; stroke-linecap: square"/>
   </g>
   <g id="patch_4">
    <path d="M 48.008281 436.48392 
L 48.008281 16.558125 
" style="fill: none; stroke: #000000; stroke-linejoin: miter; stroke-linecap: square"/>
   </g>
   <g id="patch_5">
    <path d="M 467.934077 436.48392 
L 467.934077 16.558125 
" style="fill: none; stroke: #000000; stroke-linejoin: miter; stroke-linecap: square"/>
   </g>
   <g id="patch_6">
    <path d="M 48.008281 436.48392 
L 467.934077 436.48392 
" style="fill: none; stroke: #000000; stroke-linejoin: miter; stroke-linecap: square"/>
   </g>
   <g id="patch_7">
    <path d="M 48.008281 16.558125 
L 467.934077 16.558125 
" style="fill: none; stroke: #000000; stroke-linejoin: miter; stroke-linecap: square"/>
   </g>
   <g id="text_21">
    <!-- 0° -->
    <g transform="translate(331.026016 226.521023) scale(0.1 -0.1)">
     <defs>
      <path id="DejaVuSerif-b0" d="M 1600 4319 
Q 1363 4319 1200 4155 
Q 1038 3991 1038 3750 
Q 1038 3513 1198 3353 
Q 1359 3194 1600 3194 
Q 1838 3194 2000 3355 
Q 2163 3516 2163 3750 
Q 2163 3984 1997 4151 
Q 1831 4319 1600 4319 
z
M 1600 4750 
Q 1800 4750 1984 4673 
Q 2169 4597 2303 4453 
Q 2447 4313 2519 4134 
Q 2591 3956 2591 3750 
Q 2591 3338 2302 3052 
Q 2013 2766 1594 2766 
Q 1172 2766 890 3047 
Q 609 3328 609 3750 
Q 609 4169 896 4459 
Q 1184 4750 1600 4750 
z
" transform="scale(0.015625)"/>
     </defs>
     <use xlink:href="#DejaVuSerif-30"/>
     <use xlink:href="#DejaVuSerif-b0" transform="translate(63.623047 0)"/>
    </g>
   </g>
   <g id="text_22">
    <!-- 120° -->
    <g transform="translate(206.559386 158.333571) scale(0.1 -0.1)">
     <defs>
      <path id="DejaVuSerif-31" d="M 909 0 
L 909 331 
L 1722 331 
L 1722 4213 
L 781 3603 
L 781 4013 
L 1919 4750 
L 2350 4750 
L 2350 331 
L 3163 331 
L 3163 0 
L 909 0 
z
" transform="scale(0.015625)"/>
     </defs>
     <use xlink:href="#DejaVuSerif-31"/>
     <use xlink:href="#DejaVuSerif-32" transform="translate(63.623047 0)"/>
     <use xlink:href="#DejaVuSerif-30" transform="translate(127.246094 0)"/>
     <use xlink:href="#DejaVuSerif-b0" transform="translate(190.869141 0)"/>
    </g>
   </g>
   <g id="text_23">
    <!-- 240° -->
    <g transform="translate(206.559386 294.708474) scale(0.1 -0.1)">
     <use xlink:href="#DejaVuSerif-32"/>
     <use xlink:href="#DejaVuSerif-34" transform="translate(63.623047 0)"/>
     <use xlink:href="#DejaVuSerif-30" transform="translate(127.246094 0)"/>
     <use xlink:href="#DejaVuSerif-b0" transform="translate(190.869141 0)"/>
    </g>
   </g>
   <g id="text_24">
    <!-- Eigenvalues in the complex plane -->
    <g transform="translate(145.170241 10.558125) scale(0.12 -0.12)">
     <defs>
      <path id="DejaVuSerif-Bold-45" d="M 300 0 
L 300 378 
L 897 378 
L 897 4288 
L 300 4288 
L 300 4666 
L 4494 4666 
L 4494 3566 
L 4063 3566 
L 4063 4238 
L 2100 4238 
L 2100 2741 
L 3322 2741 
L 3322 3334 
L 3750 3334 
L 3750 1722 
L 3322 1722 
L 3322 2316 
L 2100 2316 
L 2100 428 
L 4122 428 
L 4122 1100 
L 4550 1100 
L 4550 0 
L 300 0 
z
" transform="scale(0.015625)"/>
      <path id="DejaVuSerif-Bold-69" d="M 588 4263 
Q 588 4516 763 4689 
Q 938 4863 1191 4863 
Q 1438 4863 1611 4689 
Q 1784 4516 1784 4263 
Q 1784 4016 1611 3842 
Q 1438 3669 1191 3669 
Q 938 3669 763 3841 
Q 588 4013 588 4263 
z
M 1797 378 
L 2272 378 
L 2272 0 
L 219 0 
L 219 378 
L 691 378 
L 691 2944 
L 219 2944 
L 219 3322 
L 1797 3322 
L 1797 378 
z
" transform="scale(0.015625)"/>
      <path id="DejaVuSerif-Bold-67" d="M 3853 2944 
L 3853 44 
Q 3853 -656 3354 -1039 
Q 2856 -1422 1947 -1422 
Q 1616 -1422 1275 -1370 
Q 934 -1319 575 -1216 
L 575 -422 
L 928 -422 
Q 975 -750 1192 -909 
Q 1409 -1069 1813 -1069 
Q 2325 -1069 2536 -823 
Q 2747 -578 2747 44 
L 2747 422 
Q 2606 163 2367 36 
Q 2128 -91 1778 -91 
Q 1072 -91 667 378 
Q 263 847 263 1663 
Q 263 2481 667 2947 
Q 1072 3413 1778 3413 
Q 2128 3413 2367 3286 
Q 2606 3159 2747 2900 
L 2747 3322 
L 4325 3322 
L 4325 2944 
L 3853 2944 
z
M 2747 1825 
Q 2747 2406 2597 2665 
Q 2447 2925 2119 2925 
Q 1775 2925 1636 2651 
Q 1497 2378 1497 1663 
Q 1497 947 1637 672 
Q 1778 397 2119 397 
Q 2447 397 2597 656 
Q 2747 916 2747 1497 
L 2747 1825 
z
" transform="scale(0.015625)"/>
      <path id="DejaVuSerif-Bold-65" d="M 2566 1875 
Q 2566 2531 2444 2795 
Q 2322 3059 2028 3059 
Q 1744 3059 1620 2800 
Q 1497 2541 1497 1931 
L 1497 1875 
L 2566 1875 
z
M 3781 1503 
L 1497 1503 
L 1497 1478 
Q 1497 834 1690 548 
Q 1884 263 2316 263 
Q 2675 263 2897 453 
Q 3119 644 3181 1006 
L 3700 1006 
Q 3566 441 3166 175 
Q 2766 -91 2047 -91 
Q 1184 -91 723 364 
Q 263 819 263 1663 
Q 263 2488 734 2950 
Q 1206 3413 2047 3413 
Q 2872 3413 3312 2927 
Q 3753 2441 3781 1503 
z
" transform="scale(0.015625)"/>
      <path id="DejaVuSerif-Bold-6e" d="M 219 0 
L 219 378 
L 691 378 
L 691 2944 
L 219 2944 
L 219 3322 
L 1797 3322 
L 1797 2853 
Q 1997 3150 2253 3281 
Q 2509 3413 2900 3413 
Q 3459 3413 3745 3083 
Q 4031 2753 4031 2113 
L 4031 378 
L 4506 378 
L 4506 0 
L 2522 0 
L 2522 378 
L 2925 378 
L 2925 2144 
Q 2925 2566 2817 2730 
Q 2709 2894 2444 2894 
Q 2109 2894 1953 2648 
Q 1797 2403 1797 1869 
L 1797 378 
L 2203 378 
L 2203 0 
L 219 0 
z
" transform="scale(0.015625)"/>
      <path id="DejaVuSerif-Bold-76" d="M 1428 0 
L 250 2944 
L -116 2944 
L -116 3322 
L 1791 3322 
L 1791 2944 
L 1388 2944 
L 2228 844 
L 3066 2944 
L 2631 2944 
L 2631 3322 
L 3878 3322 
L 3878 2944 
L 3494 2944 
L 2316 0 
L 1428 0 
z
" transform="scale(0.015625)"/>
      <path id="DejaVuSerif-Bold-61" d="M 3525 2041 
L 3525 378 
L 4000 378 
L 4000 0 
L 2419 0 
L 2419 422 
Q 2200 159 1931 34 
Q 1663 -91 1319 -91 
Q 809 -91 536 182 
Q 263 456 263 966 
Q 263 1525 655 1803 
Q 1047 2081 1838 2081 
L 2419 2081 
L 2419 2278 
Q 2419 2681 2228 2873 
Q 2038 3066 1638 3066 
Q 1306 3066 1126 2930 
Q 947 2794 872 2484 
L 519 2484 
L 519 3200 
Q 816 3306 1134 3359 
Q 1453 3413 1806 3413 
Q 2697 3413 3111 3081 
Q 3525 2750 3525 2041 
z
M 2419 1044 
L 2419 1709 
L 2003 1709 
Q 1694 1709 1528 1540 
Q 1363 1372 1363 1056 
Q 1363 741 1483 584 
Q 1603 428 1850 428 
Q 2106 428 2262 597 
Q 2419 766 2419 1044 
z
" transform="scale(0.015625)"/>
      <path id="DejaVuSerif-Bold-6c" d="M 1797 378 
L 2272 378 
L 2272 0 
L 219 0 
L 219 378 
L 691 378 
L 691 4488 
L 219 4488 
L 219 4863 
L 1797 4863 
L 1797 378 
z
" transform="scale(0.015625)"/>
      <path id="DejaVuSerif-Bold-75" d="M 3963 3322 
L 3963 378 
L 4434 378 
L 4434 0 
L 2853 0 
L 2853 469 
Q 2656 172 2400 40 
Q 2144 -91 1753 -91 
Q 1194 -91 908 239 
Q 622 569 622 1209 
L 622 2944 
L 147 2944 
L 147 3322 
L 1728 3322 
L 1728 1381 
Q 1728 763 1831 595 
Q 1934 428 2209 428 
Q 2544 428 2698 675 
Q 2853 922 2853 1459 
L 2853 2944 
L 2450 2944 
L 2450 3322 
L 3963 3322 
z
" transform="scale(0.015625)"/>
      <path id="DejaVuSerif-Bold-73" d="M 300 97 
L 300 1025 
L 653 1025 
Q 697 653 931 458 
Q 1166 263 1569 263 
Q 1906 263 2086 380 
Q 2266 497 2266 716 
Q 2266 916 2152 1025 
Q 2038 1134 1709 1216 
L 1253 1331 
Q 738 1459 506 1698 
Q 275 1938 275 2344 
Q 275 2884 650 3148 
Q 1025 3413 1806 3413 
Q 2100 3413 2433 3364 
Q 2766 3316 3169 3213 
L 3169 2375 
L 2816 2375 
Q 2788 2716 2573 2887 
Q 2359 3059 1959 3059 
Q 1622 3059 1448 2951 
Q 1275 2844 1275 2638 
Q 1275 2469 1375 2372 
Q 1475 2275 1734 2209 
L 2188 2094 
Q 2841 1928 3091 1684 
Q 3341 1441 3341 1006 
Q 3341 444 2939 176 
Q 2538 -91 1691 -91 
Q 1381 -91 1034 -44 
Q 688 3 300 97 
z
" transform="scale(0.015625)"/>
      <path id="DejaVuSerif-Bold-20" transform="scale(0.015625)"/>
      <path id="DejaVuSerif-Bold-74" d="M 634 2944 
L 153 2944 
L 153 3322 
L 634 3322 
L 634 4353 
L 1741 4353 
L 1741 3322 
L 2663 3322 
L 2663 2944 
L 1741 2944 
L 1741 909 
Q 1741 475 1809 369 
Q 1878 263 2059 263 
Q 2259 263 2356 397 
Q 2453 531 2459 813 
L 2925 813 
Q 2897 313 2651 111 
Q 2406 -91 1806 -91 
Q 1122 -91 878 123 
Q 634 338 634 909 
L 634 2944 
z
" transform="scale(0.015625)"/>
      <path id="DejaVuSerif-Bold-68" d="M 219 0 
L 219 378 
L 691 378 
L 691 4488 
L 197 4488 
L 197 4863 
L 1797 4863 
L 1797 2853 
Q 1997 3150 2253 3281 
Q 2509 3413 2900 3413 
Q 3459 3413 3745 3083 
Q 4031 2753 4031 2113 
L 4031 378 
L 4506 378 
L 4506 0 
L 2522 0 
L 2522 378 
L 2925 378 
L 2925 2144 
Q 2925 2566 2817 2730 
Q 2709 2894 2444 2894 
Q 2109 2894 1953 2648 
Q 1797 2403 1797 1869 
L 1797 378 
L 2203 378 
L 2203 0 
L 219 0 
z
" transform="scale(0.015625)"/>
      <path id="DejaVuSerif-Bold-63" d="M 3609 1038 
Q 3491 469 3123 189 
Q 2756 -91 2125 -91 
Q 1238 -91 750 368 
Q 263 828 263 1663 
Q 263 2488 744 2950 
Q 1225 3413 2081 3413 
Q 2428 3413 2781 3347 
Q 3134 3281 3500 3150 
L 3500 2228 
L 3150 2228 
Q 3100 2650 2903 2854 
Q 2706 3059 2350 3059 
Q 1888 3059 1692 2746 
Q 1497 2434 1497 1663 
Q 1497 909 1687 586 
Q 1878 263 2309 263 
Q 2644 263 2845 463 
Q 3047 663 3091 1038 
L 3609 1038 
z
" transform="scale(0.015625)"/>
      <path id="DejaVuSerif-Bold-6f" d="M 2138 263 
Q 2488 263 2630 563 
Q 2772 863 2772 1663 
Q 2772 2463 2631 2761 
Q 2491 3059 2138 3059 
Q 1784 3059 1640 2757 
Q 1497 2456 1497 1663 
Q 1497 869 1640 566 
Q 1784 263 2138 263 
z
M 2138 -91 
Q 1259 -91 761 376 
Q 263 844 263 1663 
Q 263 2484 761 2948 
Q 1259 3413 2138 3413 
Q 3019 3413 3516 2948 
Q 4013 2484 4013 1663 
Q 4013 844 3514 376 
Q 3016 -91 2138 -91 
z
" transform="scale(0.015625)"/>
      <path id="DejaVuSerif-Bold-6d" d="M 3884 2778 
Q 4116 3109 4384 3261 
Q 4653 3413 5013 3413 
Q 5584 3413 5867 3089 
Q 6150 2766 6150 2113 
L 6150 378 
L 6625 378 
L 6625 0 
L 4647 0 
L 4647 378 
L 5044 378 
L 5044 1947 
Q 5044 2569 4948 2731 
Q 4853 2894 4594 2894 
Q 4300 2894 4137 2667 
Q 3975 2441 3975 2022 
L 3975 378 
L 4372 378 
L 4372 0 
L 2472 0 
L 2472 378 
L 2869 378 
L 2869 1947 
Q 2869 2569 2772 2731 
Q 2675 2894 2419 2894 
Q 2122 2894 1959 2667 
Q 1797 2441 1797 2022 
L 1797 378 
L 2194 378 
L 2194 0 
L 219 0 
L 219 378 
L 691 378 
L 691 2944 
L 219 2944 
L 219 3322 
L 1797 3322 
L 1797 2853 
Q 1991 3144 2241 3278 
Q 2491 3413 2834 3413 
Q 3241 3413 3494 3258 
Q 3747 3103 3884 2778 
z
" transform="scale(0.015625)"/>
      <path id="DejaVuSerif-Bold-70" d="M 1728 1825 
L 1728 1497 
Q 1728 916 1876 656 
Q 2025 397 2356 397 
Q 2697 397 2836 672 
Q 2975 947 2975 1663 
Q 2975 2378 2836 2651 
Q 2697 2925 2356 2925 
Q 2025 2925 1876 2665 
Q 1728 2406 1728 1825 
z
M 622 2944 
L 147 2944 
L 147 3322 
L 1728 3322 
L 1728 2900 
Q 1869 3159 2106 3286 
Q 2344 3413 2694 3413 
Q 3403 3413 3811 2945 
Q 4219 2478 4219 1663 
Q 4219 847 3811 378 
Q 3403 -91 2694 -91 
Q 2344 -91 2106 36 
Q 1869 163 1728 422 
L 1728 -953 
L 2241 -953 
L 2241 -1331 
L 147 -1331 
L 147 -953 
L 622 -953 
L 622 2944 
z
" transform="scale(0.015625)"/>
      <path id="DejaVuSerif-Bold-78" d="M 2247 2119 
L 2834 2944 
L 2425 2944 
L 2425 3322 
L 3719 3322 
L 3719 2944 
L 3278 2944 
L 2431 1759 
L 3419 378 
L 3859 378 
L 3859 0 
L 1747 0 
L 1747 378 
L 2175 378 
L 1550 1253 
L 922 378 
L 1369 378 
L 1369 0 
L 0 0 
L 0 378 
L 475 378 
L 1356 1619 
L 403 2944 
L 31 2944 
L 31 3322 
L 2059 3322 
L 2059 2944 
L 1656 2944 
L 2247 2119 
z
" transform="scale(0.015625)"/>
     </defs>
     <use xlink:href="#DejaVuSerif-Bold-45"/>
     <use xlink:href="#DejaVuSerif-Bold-69" transform="translate(76.220703 0)"/>
     <use xlink:href="#DejaVuSerif-Bold-67" transform="translate(114.208984 0)"/>
     <use xlink:href="#DejaVuSerif-Bold-65" transform="translate(184.130859 0)"/>
     <use xlink:href="#DejaVuSerif-Bold-6e" transform="translate(247.753906 0)"/>
     <use xlink:href="#DejaVuSerif-Bold-76" transform="translate(320.458984 0)"/>
     <use xlink:href="#DejaVuSerif-Bold-61" transform="translate(378.564453 0)"/>
     <use xlink:href="#DejaVuSerif-Bold-6c" transform="translate(443.359375 0)"/>
     <use xlink:href="#DejaVuSerif-Bold-75" transform="translate(481.347656 0)"/>
     <use xlink:href="#DejaVuSerif-Bold-65" transform="translate(554.052734 0)"/>
     <use xlink:href="#DejaVuSerif-Bold-73" transform="translate(617.675781 0)"/>
     <use xlink:href="#DejaVuSerif-Bold-20" transform="translate(673.974609 0)"/>
     <use xlink:href="#DejaVuSerif-Bold-69" transform="translate(708.789062 0)"/>
     <use xlink:href="#DejaVuSerif-Bold-6e" transform="translate(746.777344 0)"/>
     <use xlink:href="#DejaVuSerif-Bold-20" transform="translate(819.482422 0)"/>
     <use xlink:href="#DejaVuSerif-Bold-74" transform="translate(854.296875 0)"/>
     <use xlink:href="#DejaVuSerif-Bold-68" transform="translate(900.488281 0)"/>
     <use xlink:href="#DejaVuSerif-Bold-65" transform="translate(973.193359 0)"/>
     <use xlink:href="#DejaVuSerif-Bold-20" transform="translate(1036.816406 0)"/>
     <use xlink:href="#DejaVuSerif-Bold-63" transform="translate(1071.630859 0)"/>
     <use xlink:href="#DejaVuSerif-Bold-6f" transform="translate(1132.519531 0)"/>
     <use xlink:href="#DejaVuSerif-Bold-6d" transform="translate(1199.21875 0)"/>
     <use xlink:href="#DejaVuSerif-Bold-70" transform="translate(1305.029297 0)"/>
     <use xlink:href="#DejaVuSerif-Bold-6c" transform="translate(1374.951172 0)"/>
     <use xlink:href="#DejaVuSerif-Bold-65" transform="translate(1412.939453 0)"/>
     <use xlink:href="#DejaVuSerif-Bold-78" transform="translate(1476.5625 0)"/>
     <use xlink:href="#DejaVuSerif-Bold-20" transform="translate(1536.181641 0)"/>
     <use xlink:href="#DejaVuSerif-Bold-70" transform="translate(1570.996094 0)"/>
     <use xlink:href="#DejaVuSerif-Bold-6c" transform="translate(1640.917969 0)"/>
     <use xlink:href="#DejaVuSerif-Bold-61" transform="translate(1678.90625 0)"/>
     <use xlink:href="#DejaVuSerif-Bold-6e" transform="translate(1743.701172 0)"/>
     <use xlink:href="#DejaVuSerif-Bold-65" transform="translate(1816.40625 0)"/>
    </g>
   </g>
  </g>
  <g id="axes_2">
   <g id="patch_8">
    <path d="M 588.315548 150.93438 
L 689.097739 150.93438 
L 689.097739 50.152189 
L 588.315548 50.152189 
z
" clip-path="url(#p12b330c4a1)" style="fill: #ff0000; opacity: 0.3; stroke: #000000; stroke-width: 2; stroke-linejoin: miter"/>
   </g>
   <g id="patch_9">
    <path d="M 689.097739 150.93438 
L 789.87993 150.93438 
L 789.87993 50.152189 
L 689.097739 50.152189 
z
" clip-path="url(#p12b330c4a1)" style="fill: #ffffff; stroke: #000000; stroke-linejoin: miter"/>
   </g>
   <g id="patch_10">
    <path d="M 789.87993 150.93438 
L 890.662121 150.93438 
L 890.662121 50.152189 
L 789.87993 50.152189 
z
" clip-path="url(#p12b330c4a1)" style="fill: #ffffff; stroke: #000000; stroke-linejoin: miter"/>
   </g>
   <g id="patch_11">
    <path d="M 588.315548 251.71657 
L 689.097739 251.71657 
L 689.097739 150.93438 
L 588.315548 150.93438 
z
" clip-path="url(#p12b330c4a1)" style="fill: #ffffff; stroke: #000000; stroke-linejoin: miter"/>
   </g>
   <g id="patch_12">
    <path d="M 689.097739 251.71657 
L 789.87993 251.71657 
L 789.87993 150.93438 
L 689.097739 150.93438 
z
" clip-path="url(#p12b330c4a1)" style="fill: #008000; opacity: 0.3; stroke: #000000; stroke-width: 2; stroke-linejoin: miter"/>
   </g>
   <g id="patch_13">
    <path d="M 789.87993 251.71657 
L 890.662121 251.71657 
L 890.662121 150.93438 
L 789.87993 150.93438 
z
" clip-path="url(#p12b330c4a1)" style="fill: #ffffff; stroke: #000000; stroke-linejoin: miter"/>
   </g>
   <g id="patch_14">
    <path d="M 588.315548 352.498761 
L 689.097739 352.498761 
L 689.097739 251.71657 
L 588.315548 251.71657 
z
" clip-path="url(#p12b330c4a1)" style="fill: #ffffff; stroke: #000000; stroke-linejoin: miter"/>
   </g>
   <g id="patch_15">
    <path d="M 689.097739 352.498761 
L 789.87993 352.498761 
L 789.87993 251.71657 
L 689.097739 251.71657 
z
" clip-path="url(#p12b330c4a1)" style="fill: #ffffff; stroke: #000000; stroke-linejoin: miter"/>
   </g>
   <g id="patch_16">
    <path d="M 789.87993 352.498761 
L 890.662121 352.498761 
L 890.662121 251.71657 
L 789.87993 251.71657 
z
" clip-path="url(#p12b330c4a1)" style="fill: #0000ff; opacity: 0.3; stroke: #000000; stroke-width: 2; stroke-linejoin: miter"/>
   </g>
   <g id="line2d_30">
    <path d="M 579.917032 360.897277 
L 579.917032 41.753673 
" clip-path="url(#p12b330c4a1)" style="fill: none; stroke: #000000; stroke-width: 3; stroke-linecap: square"/>
   </g>
   <g id="line2d_31">
    <path d="M 579.917032 360.897277 
L 596.714064 360.897277 
" clip-path="url(#p12b330c4a1)" style="fill: none; stroke: #000000; stroke-width: 3; stroke-linecap: square"/>
   </g>
   <g id="line2d_32">
    <path d="M 579.917032 41.753673 
L 596.714064 41.753673 
" clip-path="url(#p12b330c4a1)" style="fill: none; stroke: #000000; stroke-width: 3; stroke-linecap: square"/>
   </g>
   <g id="line2d_33">
    <path d="M 899.060637 360.897277 
L 899.060637 41.753673 
" clip-path="url(#p12b330c4a1)" style="fill: none; stroke: #000000; stroke-width: 3; stroke-linecap: square"/>
   </g>
   <g id="line2d_34">
    <path d="M 882.263605 360.897277 
L 899.060637 360.897277 
" clip-path="url(#p12b330c4a1)" style="fill: none; stroke: #000000; stroke-width: 3; stroke-linecap: square"/>
   </g>
   <g id="line2d_35">
    <path d="M 882.263605 41.753673 
L 899.060637 41.753673 
" clip-path="url(#p12b330c4a1)" style="fill: none; stroke: #000000; stroke-width: 3; stroke-linecap: square"/>
   </g>
   <g id="text_25">
    <!-- $\frac{1}{2}$ -->
    <g transform="translate(634.646644 104.393284) scale(0.14 -0.14)">
     <defs>
      <path id="DejaVuSans-31" d="M 794 531 
L 1825 531 
L 1825 4091 
L 703 3866 
L 703 4441 
L 1819 4666 
L 2450 4666 
L 2450 531 
L 3481 531 
L 3481 0 
L 794 0 
L 794 531 
z
" transform="scale(0.015625)"/>
      <path id="DejaVuSans-32" d="M 1228 531 
L 3431 531 
L 3431 0 
L 469 0 
L 469 531 
Q 828 903 1448 1529 
Q 2069 2156 2228 2338 
Q 2531 2678 2651 2914 
Q 2772 3150 2772 3378 
Q 2772 3750 2511 3984 
Q 2250 4219 1831 4219 
Q 1534 4219 1204 4116 
Q 875 4013 500 3803 
L 500 4441 
Q 881 4594 1212 4672 
Q 1544 4750 1819 4750 
Q 2544 4750 2975 4387 
Q 3406 4025 3406 3419 
Q 3406 3131 3298 2873 
Q 3191 2616 2906 2266 
Q 2828 2175 2409 1742 
Q 1991 1309 1228 531 
z
" transform="scale(0.015625)"/>
     </defs>
     <use xlink:href="#DejaVuSans-31" transform="translate(0 43.965625) scale(0.7)"/>
     <use xlink:href="#DejaVuSans-32" transform="translate(0 -39.2375) scale(0.7)"/>
     <path d="M 0 18.965625 
L 0 25.215625 
L 44.536133 25.215625 
L 44.536133 18.965625 
L 0 18.965625 
z
"/>
    </g>
   </g>
   <g id="text_26">
    <!-- 0 -->
    <g style="fill: #808080" transform="translate(735.671335 103.854534) scale(0.12 -0.12)">
     <use xlink:href="#DejaVuSerif-30"/>
    </g>
   </g>
   <g id="text_27">
    <!-- 0 -->
    <g style="fill: #808080" transform="translate(836.453526 103.854534) scale(0.12 -0.12)">
     <use xlink:href="#DejaVuSerif-30"/>
    </g>
   </g>
   <g id="text_28">
    <!-- 0 -->
    <g style="fill: #808080" transform="translate(634.889144 204.636725) scale(0.12 -0.12)">
     <use xlink:href="#DejaVuSerif-30"/>
    </g>
   </g>
   <g id="text_29">
    <!-- $\frac{\omega}{2}$ -->
    <g transform="translate(734.448835 204.405475) scale(0.14 -0.14)">
     <defs>
      <path id="DejaVuSans-Oblique-3c9" d="M 1369 -91 
Q 72 -91 434 1766 
Q 575 2500 1256 3500 
L 1875 3500 
Q 1231 2500 1088 1750 
Q 819 397 1519 397 
Q 2166 397 2478 2078 
L 3009 2078 
Q 2669 388 3316 397 
Q 4013 403 4275 1750 
Q 4419 2500 4169 3500 
L 4788 3500 
Q 5075 2500 4934 1766 
Q 4578 -94 3278 -91 
Q 2428 -88 2503 844 
Q 2194 -91 1369 -91 
z
" transform="scale(0.015625)"/>
     </defs>
     <use xlink:href="#DejaVuSans-Oblique-3c9" transform="translate(0 45.71875) scale(0.7)"/>
     <use xlink:href="#DejaVuSans-32" transform="translate(7 -38.5125) scale(0.7)"/>
     <path d="M 0 19.690625 
L 0 25.940625 
L 58.618164 25.940625 
L 58.618164 19.690625 
L 0 19.690625 
z
"/>
    </g>
   </g>
   <g id="text_30">
    <!-- 0 -->
    <g style="fill: #808080" transform="translate(836.453526 204.636725) scale(0.12 -0.12)">
     <use xlink:href="#DejaVuSerif-30"/>
    </g>
   </g>
   <g id="text_31">
    <!-- 0 -->
    <g style="fill: #808080" transform="translate(634.889144 305.418916) scale(0.12 -0.12)">
     <use xlink:href="#DejaVuSerif-30"/>
    </g>
   </g>
   <g id="text_32">
    <!-- 0 -->
    <g style="fill: #808080" transform="translate(735.671335 305.418916) scale(0.12 -0.12)">
     <use xlink:href="#DejaVuSerif-30"/>
    </g>
   </g>
   <g id="text_33">
    <!-- $\frac{\omega^2}{2}$ -->
    <g transform="translate(832.711026 306.867666) scale(0.14 -0.14)">
     <use xlink:href="#DejaVuSans-Oblique-3c9" transform="translate(0 44.835938) scale(0.7)"/>
     <use xlink:href="#DejaVuSans-32" transform="translate(61.744466 71.632812) scale(0.49)"/>
     <use xlink:href="#DejaVuSans-32" transform="translate(25 -39.395312) scale(0.7)"/>
     <path d="M 0 18.807813 
L 0 25.057813 
L 94.833822 25.057813 
L 94.833822 18.807813 
L 0 18.807813 
z
"/>
    </g>
   </g>
   <g id="text_34">
    <!-- $\hat{\Omega} = \frac{1}{2}\,\mathrm{diag}(1, \omega, \omega^2)$ -->
    <g transform="translate(672.848835 402.889857) scale(0.14 -0.14)">
     <defs>
      <path id="DejaVuSans-302" d="M -1831 5119 
L -1369 5119 
L -603 3944 
L -1038 3944 
L -1600 4709 
L -2163 3944 
L -2597 3944 
L -1831 5119 
z
M -1600 3584 
L -1600 3584 
z
" transform="scale(0.015625)"/>
      <path id="DejaVuSans-3a9" d="M 4647 556 
L 4647 0 
L 2772 0 
L 2772 556 
Q 3325 859 3634 1378 
Q 3944 1897 3944 2528 
Q 3944 3278 3531 3731 
Q 3119 4184 2444 4184 
Q 1769 4184 1355 3729 
Q 941 3275 941 2528 
Q 941 1897 1250 1378 
Q 1563 859 2119 556 
L 2119 0 
L 244 0 
L 244 556 
L 1241 556 
Q 747 991 519 1456 
Q 294 1922 294 2497 
Q 294 3491 894 4106 
Q 1491 4722 2444 4722 
Q 3391 4722 3994 4106 
Q 4594 3494 4594 2528 
Q 4594 1922 4372 1459 
Q 4150 997 3647 556 
L 4647 556 
z
" transform="scale(0.015625)"/>
      <path id="DejaVuSans-3d" d="M 678 2906 
L 4684 2906 
L 4684 2381 
L 678 2381 
L 678 2906 
z
M 678 1631 
L 4684 1631 
L 4684 1100 
L 678 1100 
L 678 1631 
z
" transform="scale(0.015625)"/>
      <path id="DejaVuSans-64" d="M 2906 2969 
L 2906 4863 
L 3481 4863 
L 3481 0 
L 2906 0 
L 2906 525 
Q 2725 213 2448 61 
Q 2172 -91 1784 -91 
Q 1150 -91 751 415 
Q 353 922 353 1747 
Q 353 2572 751 3078 
Q 1150 3584 1784 3584 
Q 2172 3584 2448 3432 
Q 2725 3281 2906 2969 
z
M 947 1747 
Q 947 1113 1208 752 
Q 1469 391 1925 391 
Q 2381 391 2643 752 
Q 2906 1113 2906 1747 
Q 2906 2381 2643 2742 
Q 2381 3103 1925 3103 
Q 1469 3103 1208 2742 
Q 947 2381 947 1747 
z
" transform="scale(0.015625)"/>
      <path id="DejaVuSans-69" d="M 603 3500 
L 1178 3500 
L 1178 0 
L 603 0 
L 603 3500 
z
M 603 4863 
L 1178 4863 
L 1178 4134 
L 603 4134 
L 603 4863 
z
" transform="scale(0.015625)"/>
      <path id="DejaVuSans-61" d="M 2194 1759 
Q 1497 1759 1228 1600 
Q 959 1441 959 1056 
Q 959 750 1161 570 
Q 1363 391 1709 391 
Q 2188 391 2477 730 
Q 2766 1069 2766 1631 
L 2766 1759 
L 2194 1759 
z
M 3341 1997 
L 3341 0 
L 2766 0 
L 2766 531 
Q 2569 213 2275 61 
Q 1981 -91 1556 -91 
Q 1019 -91 701 211 
Q 384 513 384 1019 
Q 384 1609 779 1909 
Q 1175 2209 1959 2209 
L 2766 2209 
L 2766 2266 
Q 2766 2663 2505 2880 
Q 2244 3097 1772 3097 
Q 1472 3097 1187 3025 
Q 903 2953 641 2809 
L 641 3341 
Q 956 3463 1253 3523 
Q 1550 3584 1831 3584 
Q 2591 3584 2966 3190 
Q 3341 2797 3341 1997 
z
" transform="scale(0.015625)"/>
      <path id="DejaVuSans-67" d="M 2906 1791 
Q 2906 2416 2648 2759 
Q 2391 3103 1925 3103 
Q 1463 3103 1205 2759 
Q 947 2416 947 1791 
Q 947 1169 1205 825 
Q 1463 481 1925 481 
Q 2391 481 2648 825 
Q 2906 1169 2906 1791 
z
M 3481 434 
Q 3481 -459 3084 -895 
Q 2688 -1331 1869 -1331 
Q 1566 -1331 1297 -1286 
Q 1028 -1241 775 -1147 
L 775 -588 
Q 1028 -725 1275 -790 
Q 1522 -856 1778 -856 
Q 2344 -856 2625 -561 
Q 2906 -266 2906 331 
L 2906 616 
Q 2728 306 2450 153 
Q 2172 0 1784 0 
Q 1141 0 747 490 
Q 353 981 353 1791 
Q 353 2603 747 3093 
Q 1141 3584 1784 3584 
Q 2172 3584 2450 3431 
Q 2728 3278 2906 2969 
L 2906 3500 
L 3481 3500 
L 3481 434 
z
" transform="scale(0.015625)"/>
      <path id="DejaVuSans-28" d="M 1984 4856 
Q 1566 4138 1362 3434 
Q 1159 2731 1159 2009 
Q 1159 1288 1364 580 
Q 1569 -128 1984 -844 
L 1484 -844 
Q 1016 -109 783 600 
Q 550 1309 550 2009 
Q 550 2706 781 3412 
Q 1013 4119 1484 4856 
L 1984 4856 
z
" transform="scale(0.015625)"/>
      <path id="DejaVuSans-2c" d="M 750 794 
L 1409 794 
L 1409 256 
L 897 -744 
L 494 -744 
L 750 256 
L 750 794 
z
" transform="scale(0.015625)"/>
      <path id="DejaVuSans-29" d="M 513 4856 
L 1013 4856 
Q 1481 4119 1714 3412 
Q 1947 2706 1947 2009 
Q 1947 1309 1714 600 
Q 1481 -109 1013 -844 
L 513 -844 
Q 928 -128 1133 580 
Q 1338 1288 1338 2009 
Q 1338 2731 1133 3434 
Q 928 4138 513 4856 
z
" transform="scale(0.015625)"/>
     </defs>
     <use xlink:href="#DejaVuSans-302" transform="translate(72.682129 31.015625)"/>
     <use xlink:href="#DejaVuSans-3a9" transform="translate(0 0.734375)"/>
     <use xlink:href="#DejaVuSans-3d" transform="translate(95.898438 0.734375)"/>
     <use xlink:href="#DejaVuSans-31" transform="translate(199.169922 44.53125) scale(0.7)"/>
     <use xlink:href="#DejaVuSans-32" transform="translate(199.169922 -38.671875) scale(0.7)"/>
     <use xlink:href="#DejaVuSans-64" transform="translate(272.441731 0.734375)"/>
     <use xlink:href="#DejaVuSans-69" transform="translate(335.918293 0.734375)"/>
     <use xlink:href="#DejaVuSans-61" transform="translate(363.701497 0.734375)"/>
     <use xlink:href="#DejaVuSans-67" transform="translate(424.980793 0.734375)"/>
     <use xlink:href="#DejaVuSans-28" transform="translate(488.457356 0.734375)"/>
     <use xlink:href="#DejaVuSans-31" transform="translate(527.471028 0.734375)"/>
     <use xlink:href="#DejaVuSans-2c" transform="translate(591.094075 0.734375)"/>
     <use xlink:href="#DejaVuSans-Oblique-3c9" transform="translate(642.363606 0.734375)"/>
     <use xlink:href="#DejaVuSans-2c" transform="translate(726.10384 0.734375)"/>
     <use xlink:href="#DejaVuSans-Oblique-3c9" transform="translate(777.373372 0.734375)"/>
     <use xlink:href="#DejaVuSans-32" transform="translate(865.579752 39.015625) scale(0.7)"/>
     <use xlink:href="#DejaVuSans-29" transform="translate(912.85026 0.734375)"/>
     <path d="M 199.169922 19.53125 
L 199.169922 25.78125 
L 243.706055 25.78125 
L 243.706055 19.53125 
L 199.169922 19.53125 
z
"/>
    </g>
   </g>
   <g id="text_35">
    <!-- Diagonal matrix representation -->
    <g transform="translate(629.205827 10.558125) scale(0.12 -0.12)">
     <defs>
      <path id="DejaVuSerif-Bold-44" d="M 2100 378 
L 2534 378 
Q 3266 378 3605 847 
Q 3944 1316 3944 2338 
Q 3944 3353 3606 3820 
Q 3269 4288 2534 4288 
L 2100 4288 
L 2100 378 
z
M 300 0 
L 300 378 
L 897 378 
L 897 4288 
L 300 4288 
L 300 4666 
L 2694 4666 
Q 3950 4666 4615 4066 
Q 5281 3466 5281 2338 
Q 5281 1203 4614 601 
Q 3947 0 2694 0 
L 300 0 
z
" transform="scale(0.015625)"/>
      <path id="DejaVuSerif-Bold-72" d="M 3438 3359 
L 3438 2369 
L 3084 2369 
Q 3066 2634 2941 2764 
Q 2816 2894 2578 2894 
Q 2216 2894 2006 2575 
Q 1797 2256 1797 1691 
L 1797 378 
L 2400 378 
L 2400 0 
L 219 0 
L 219 378 
L 691 378 
L 691 2944 
L 184 2944 
L 184 3322 
L 1797 3322 
L 1797 2731 
Q 1959 3078 2226 3245 
Q 2494 3413 2881 3413 
Q 2978 3413 3117 3398 
Q 3256 3384 3438 3359 
z
" transform="scale(0.015625)"/>
     </defs>
     <use xlink:href="#DejaVuSerif-Bold-44"/>
     <use xlink:href="#DejaVuSerif-Bold-69" transform="translate(86.71875 0)"/>
     <use xlink:href="#DejaVuSerif-Bold-61" transform="translate(124.707031 0)"/>
     <use xlink:href="#DejaVuSerif-Bold-67" transform="translate(189.501953 0)"/>
     <use xlink:href="#DejaVuSerif-Bold-6f" transform="translate(259.423828 0)"/>
     <use xlink:href="#DejaVuSerif-Bold-6e" transform="translate(326.123047 0)"/>
     <use xlink:href="#DejaVuSerif-Bold-61" transform="translate(398.828125 0)"/>
     <use xlink:href="#DejaVuSerif-Bold-6c" transform="translate(463.623047 0)"/>
     <use xlink:href="#DejaVuSerif-Bold-20" transform="translate(501.611328 0)"/>
     <use xlink:href="#DejaVuSerif-Bold-6d" transform="translate(536.425781 0)"/>
     <use xlink:href="#DejaVuSerif-Bold-61" transform="translate(642.236328 0)"/>
     <use xlink:href="#DejaVuSerif-Bold-74" transform="translate(707.03125 0)"/>
     <use xlink:href="#DejaVuSerif-Bold-72" transform="translate(753.222656 0)"/>
     <use xlink:href="#DejaVuSerif-Bold-69" transform="translate(805.908203 0)"/>
     <use xlink:href="#DejaVuSerif-Bold-78" transform="translate(843.896484 0)"/>
     <use xlink:href="#DejaVuSerif-Bold-20" transform="translate(903.515625 0)"/>
     <use xlink:href="#DejaVuSerif-Bold-72" transform="translate(938.330078 0)"/>
     <use xlink:href="#DejaVuSerif-Bold-65" transform="translate(991.015625 0)"/>
     <use xlink:href="#DejaVuSerif-Bold-70" transform="translate(1054.638672 0)"/>
     <use xlink:href="#DejaVuSerif-Bold-72" transform="translate(1124.560547 0)"/>
     <use xlink:href="#DejaVuSerif-Bold-65" transform="translate(1177.246094 0)"/>
     <use xlink:href="#DejaVuSerif-Bold-73" transform="translate(1240.869141 0)"/>
     <use xlink:href="#DejaVuSerif-Bold-65" transform="translate(1297.167969 0)"/>
     <use xlink:href="#DejaVuSerif-Bold-6e" transform="translate(1360.791016 0)"/>
     <use xlink:href="#DejaVuSerif-Bold-74" transform="translate(1433.496094 0)"/>
     <use xlink:href="#DejaVuSerif-Bold-61" transform="translate(1479.6875 0)"/>
     <use xlink:href="#DejaVuSerif-Bold-74" transform="translate(1544.482422 0)"/>
     <use xlink:href="#DejaVuSerif-Bold-69" transform="translate(1590.673828 0)"/>
     <use xlink:href="#DejaVuSerif-Bold-6f" transform="translate(1628.662109 0)"/>
     <use xlink:href="#DejaVuSerif-Bold-6e" transform="translate(1695.361328 0)"/>
    </g>
   </g>
  </g>
 </g>
 <defs>
  <clipPath id="pc43a2dd152">
   <rect x="48.008281" y="16.558125" width="419.925795" height="419.925795"/>
  </clipPath>
  <clipPath id="p12b330c4a1">
   <rect x="546.322969" y="16.558125" width="377.933216" height="419.925795"/>
  </clipPath>
 </defs>
</svg>
