<?xml version="1.0" encoding="utf-8" standalone="no"?>
<!DOCTYPE svg PUBLIC "-//W3C//DTD SVG 1.1//EN"
  "http://www.w3.org/Graphics/SVG/1.1/DTD/svg11.dtd">
<svg xmlns:xlink="http://www.w3.org/1999/xlink" width="558.409862pt" height="413.134375pt" viewBox="0 0 558.409862 413.134375" xmlns="http://www.w3.org/2000/svg" version="1.1">
 <metadata>
  <rdf:RDF xmlns:dc="http://purl.org/dc/elements/1.1/" xmlns:cc="http://creativecommons.org/ns#" xmlns:rdf="http://www.w3.org/1999/02/22-rdf-syntax-ns#">
   <cc:Work>
    <dc:type rdf:resource="http://purl.org/dc/dcmitype/StillImage"/>
    <dc:date>2026-05-19T10:08:17.391406</dc:date>
    <dc:format>image/svg+xml</dc:format>
    <dc:creator>
     <cc:Agent>
      <dc:title>Matplotlib v3.10.8, https://matplotlib.org/</dc:title>
     </cc:Agent>
    </dc:creator>
   </cc:Work>
  </rdf:RDF>
 </metadata>
 <defs>
  <style type="text/css">*{stroke-linejoin: round; stroke-linecap: butt}</style>
 </defs>
 <g id="figure_1">
  <g id="patch_1">
   <path d="M 0 413.134375 
L 558.409862 413.134375 
L 558.409862 0 
L 0 0 
z
" style="fill: #ffffff"/>
  </g>
  <g id="axes_1">
   <g id="patch_2">
    <path d="M 56.169375 373.43125 
L 553.152362 373.43125 
L 553.152362 1.44 
L 56.169375 1.44 
z
" style="fill: #ffffff"/>
   </g>
   <g id="matplotlib.axis_1">
    <g id="xtick_1">
     <g id="line2d_1">
      <path d="M 56.169375 373.43125 
L 56.169375 1.44 
" clip-path="url(#pc9aea98e45)" style="fill: none; stroke: #b0b0b0; stroke-opacity: 0.3; stroke-width: 0.8; stroke-linecap: square"/>
     </g>
     <g id="line2d_2">
      <defs>
       <path id="mc96eb63ef7" d="M 0 0 
L 0 3.5 
" style="stroke: #000000; stroke-width: 0.8"/>
      </defs>
      <g>
       <use xlink:href="#mc96eb63ef7" x="56.169375" y="373.43125" style="stroke: #000000; stroke-width: 0.8"/>
      </g>
     </g>
     <g id="text_1">
      <!-- 0 -->
      <g transform="translate(52.351875 391.649375) scale(0.12 -0.12)">
       <defs>
        <path id="DejaVuSerif-30" d="M 2034 219 
Q 2513 219 2750 744 
Q 2988 1269 2988 2328 
Q 2988 3391 2750 3916 
Q 2513 4441 2034 4441 
Q 1556 4441 1318 3916 
Q 1081 3391 1081 2328 
Q 1081 1269 1318 744 
Q 1556 219 2034 219 
z
M 2034 -91 
Q 1275 -91 848 546 
Q 422 1184 422 2328 
Q 422 3475 848 4112 
Q 1275 4750 2034 4750 
Q 2797 4750 3222 4112 
Q 3647 3475 3647 2328 
Q 3647 1184 3222 546 
Q 2797 -91 2034 -91 
z
" transform="scale(0.015625)"/>
       </defs>
       <use xlink:href="#DejaVuSerif-30"/>
      </g>
     </g>
    </g>
    <g id="xtick_2">
     <g id="line2d_3">
      <path d="M 138.999873 373.43125 
L 138.999873 1.44 
" clip-path="url(#pc9aea98e45)" style="fill: none; stroke: #b0b0b0; stroke-opacity: 0.3; stroke-width: 0.8; stroke-linecap: square"/>
     </g>
     <g id="line2d_4">
      <g>
       <use xlink:href="#mc96eb63ef7" x="138.999873" y="373.43125" style="stroke: #000000; stroke-width: 0.8"/>
      </g>
     </g>
     <g id="text_2">
      <!-- 1 -->
      <g transform="translate(135.182373 391.649375) scale(0.12 -0.12)">
       <defs>
        <path id="DejaVuSerif-31" d="M 909 0 
L 909 331 
L 1722 331 
L 1722 4213 
L 781 3603 
L 781 4013 
L 1919 4750 
L 2350 4750 
L 2350 331 
L 3163 331 
L 3163 0 
L 909 0 
z
" transform="scale(0.015625)"/>
       </defs>
       <use xlink:href="#DejaVuSerif-31"/>
      </g>
     </g>
    </g>
    <g id="xtick_3">
     <g id="line2d_5">
      <path d="M 221.830371 373.43125 
L 221.830371 1.44 
" clip-path="url(#pc9aea98e45)" style="fill: none; stroke: #b0b0b0; stroke-opacity: 0.3; stroke-width: 0.8; stroke-linecap: square"/>
     </g>
     <g id="line2d_6">
      <g>
       <use xlink:href="#mc96eb63ef7" x="221.830371" y="373.43125" style="stroke: #000000; stroke-width: 0.8"/>
      </g>
     </g>
     <g id="text_3">
      <!-- 2 -->
      <g transform="translate(218.012871 391.649375) scale(0.12 -0.12)">
       <defs>
        <path id="DejaVuSerif-32" d="M 819 3553 
L 469 3553 
L 469 4384 
Q 803 4563 1142 4656 
Q 1481 4750 1806 4750 
Q 2534 4750 2956 4397 
Q 3378 4044 3378 3438 
Q 3378 2753 2422 1800 
Q 2347 1728 2309 1691 
L 1131 513 
L 3078 513 
L 3078 1088 
L 3444 1088 
L 3444 0 
L 434 0 
L 434 341 
L 1850 1753 
Q 2319 2222 2519 2614 
Q 2719 3006 2719 3438 
Q 2719 3909 2473 4175 
Q 2228 4441 1797 4441 
Q 1350 4441 1106 4219 
Q 863 3997 819 3553 
z
" transform="scale(0.015625)"/>
       </defs>
       <use xlink:href="#DejaVuSerif-32"/>
      </g>
     </g>
    </g>
    <g id="xtick_4">
     <g id="line2d_7">
      <path d="M 304.660869 373.43125 
L 304.660869 1.44 
" clip-path="url(#pc9aea98e45)" style="fill: none; stroke: #b0b0b0; stroke-opacity: 0.3; stroke-width: 0.8; stroke-linecap: square"/>
     </g>
     <g id="line2d_8">
      <g>
       <use xlink:href="#mc96eb63ef7" x="304.660869" y="373.43125" style="stroke: #000000; stroke-width: 0.8"/>
      </g>
     </g>
     <g id="text_4">
      <!-- 3 -->
      <g transform="translate(300.843369 391.649375) scale(0.12 -0.12)">
       <defs>
        <path id="DejaVuSerif-33" d="M 622 4469 
Q 988 4606 1323 4678 
Q 1659 4750 1953 4750 
Q 2638 4750 3022 4454 
Q 3406 4159 3406 3634 
Q 3406 3213 3140 2930 
Q 2875 2647 2388 2547 
Q 2963 2466 3280 2130 
Q 3597 1794 3597 1259 
Q 3597 606 3158 257 
Q 2719 -91 1894 -91 
Q 1528 -91 1179 -12 
Q 831 66 488 225 
L 488 1131 
L 838 1131 
Q 869 681 1141 450 
Q 1413 219 1906 219 
Q 2384 219 2661 495 
Q 2938 772 2938 1253 
Q 2938 1803 2653 2086 
Q 2369 2369 1819 2369 
L 1522 2369 
L 1522 2688 
L 1678 2688 
Q 2225 2688 2498 2914 
Q 2772 3141 2772 3597 
Q 2772 4006 2547 4223 
Q 2322 4441 1900 4441 
Q 1478 4441 1245 4241 
Q 1013 4041 972 3647 
L 622 3647 
L 622 4469 
z
" transform="scale(0.015625)"/>
       </defs>
       <use xlink:href="#DejaVuSerif-33"/>
      </g>
     </g>
    </g>
    <g id="xtick_5">
     <g id="line2d_9">
      <path d="M 387.491367 373.43125 
L 387.491367 1.44 
" clip-path="url(#pc9aea98e45)" style="fill: none; stroke: #b0b0b0; stroke-opacity: 0.3; stroke-width: 0.8; stroke-linecap: square"/>
     </g>
     <g id="line2d_10">
      <g>
       <use xlink:href="#mc96eb63ef7" x="387.491367" y="373.43125" style="stroke: #000000; stroke-width: 0.8"/>
      </g>
     </g>
     <g id="text_5">
      <!-- 4 -->
      <g transform="translate(383.673867 391.649375) scale(0.12 -0.12)">
       <defs>
        <path id="DejaVuSerif-34" d="M 2234 1581 
L 2234 4063 
L 641 1581 
L 2234 1581 
z
M 3609 0 
L 1484 0 
L 1484 331 
L 2234 331 
L 2234 1247 
L 197 1247 
L 197 1588 
L 2241 4750 
L 2859 4750 
L 2859 1581 
L 3750 1581 
L 3750 1247 
L 2859 1247 
L 2859 331 
L 3609 331 
L 3609 0 
z
" transform="scale(0.015625)"/>
       </defs>
       <use xlink:href="#DejaVuSerif-34"/>
      </g>
     </g>
    </g>
    <g id="xtick_6">
     <g id="line2d_11">
      <path d="M 470.321865 373.43125 
L 470.321865 1.44 
" clip-path="url(#pc9aea98e45)" style="fill: none; stroke: #b0b0b0; stroke-opacity: 0.3; stroke-width: 0.8; stroke-linecap: square"/>
     </g>
     <g id="line2d_12">
      <g>
       <use xlink:href="#mc96eb63ef7" x="470.321865" y="373.43125" style="stroke: #000000; stroke-width: 0.8"/>
      </g>
     </g>
     <g id="text_6">
      <!-- 5 -->
      <g transform="translate(466.504365 391.649375) scale(0.12 -0.12)">
       <defs>
        <path id="DejaVuSerif-35" d="M 3219 4666 
L 3219 4153 
L 1081 4153 
L 1081 2816 
Q 1244 2928 1461 2984 
Q 1678 3041 1947 3041 
Q 2703 3041 3140 2622 
Q 3578 2203 3578 1478 
Q 3578 738 3136 323 
Q 2694 -91 1894 -91 
Q 1572 -91 1234 -12 
Q 897 66 544 225 
L 544 1131 
L 897 1131 
Q 925 688 1179 453 
Q 1434 219 1894 219 
Q 2388 219 2653 544 
Q 2919 869 2919 1478 
Q 2919 2084 2655 2407 
Q 2391 2731 1894 2731 
Q 1613 2731 1398 2631 
Q 1184 2531 1019 2322 
L 750 2322 
L 750 4666 
L 3219 4666 
z
" transform="scale(0.015625)"/>
       </defs>
       <use xlink:href="#DejaVuSerif-35"/>
      </g>
     </g>
    </g>
    <g id="xtick_7">
     <g id="line2d_13">
      <path d="M 553.152362 373.43125 
L 553.152362 1.44 
" clip-path="url(#pc9aea98e45)" style="fill: none; stroke: #b0b0b0; stroke-opacity: 0.3; stroke-width: 0.8; stroke-linecap: square"/>
     </g>
     <g id="line2d_14">
      <g>
       <use xlink:href="#mc96eb63ef7" x="553.152362" y="373.43125" style="stroke: #000000; stroke-width: 0.8"/>
      </g>
     </g>
     <g id="text_7">
      <!-- 6 -->
      <g transform="translate(549.334862 391.649375) scale(0.12 -0.12)">
       <defs>
        <path id="DejaVuSerif-36" d="M 2094 219 
Q 2534 219 2771 542 
Q 3009 866 3009 1472 
Q 3009 2078 2771 2401 
Q 2534 2725 2094 2725 
Q 1647 2725 1412 2412 
Q 1178 2100 1178 1509 
Q 1178 888 1415 553 
Q 1653 219 2094 219 
z
M 1075 2569 
Q 1288 2803 1556 2918 
Q 1825 3034 2163 3034 
Q 2859 3034 3264 2615 
Q 3669 2197 3669 1472 
Q 3669 763 3233 336 
Q 2797 -91 2069 -91 
Q 1278 -91 853 498 
Q 428 1088 428 2181 
Q 428 3406 931 4078 
Q 1434 4750 2350 4750 
Q 2597 4750 2869 4703 
Q 3141 4656 3425 4563 
L 3425 3794 
L 3072 3794 
Q 3034 4109 2831 4275 
Q 2628 4441 2284 4441 
Q 1678 4441 1381 3981 
Q 1084 3522 1075 2569 
z
" transform="scale(0.015625)"/>
       </defs>
       <use xlink:href="#DejaVuSerif-36"/>
      </g>
     </g>
    </g>
    <g id="text_8">
     <!-- $\sigma$ -->
     <g transform="translate(300.180869 408.782812) scale(0.14 -0.14)">
      <defs>
       <path id="DejaVuSans-Oblique-3c3" d="M 2219 3044 
Q 1744 3044 1422 2700 
Q 1081 2341 969 1747 
Q 844 1119 1044 756 
Q 1241 397 1706 397 
Q 2166 397 2503 759 
Q 2844 1122 2966 1747 
Q 3075 2319 2881 2700 
Q 2700 3044 2219 3044 
z
M 2309 3503 
L 4219 3500 
L 4106 2925 
L 3463 2925 
Q 3706 2438 3575 1747 
Q 3406 888 2884 400 
Q 2359 -91 1609 -91 
Q 856 -91 525 400 
Q 194 888 363 1747 
Q 528 2609 1050 3097 
Q 1484 3503 2309 3503 
z
" transform="scale(0.015625)"/>
      </defs>
      <use xlink:href="#DejaVuSans-Oblique-3c3" transform="translate(0 0.265625)"/>
     </g>
    </g>
   </g>
   <g id="matplotlib.axis_2">
    <g id="ytick_1">
     <g id="line2d_15">
      <path d="M 56.169375 267.431194 
L 553.152362 267.431194 
" clip-path="url(#pc9aea98e45)" style="fill: none; stroke: #b0b0b0; stroke-opacity: 0.3; stroke-width: 0.8; stroke-linecap: square"/>
     </g>
     <g id="line2d_16">
      <defs>
       <path id="m62bc7217f3" d="M 0 0 
L -3.5 0 
" style="stroke: #000000; stroke-width: 0.8"/>
      </defs>
      <g>
       <use xlink:href="#m62bc7217f3" x="56.169375" y="267.431194" style="stroke: #000000; stroke-width: 0.8"/>
      </g>
     </g>
     <g id="text_9">
      <!-- $\mathdefault{10^{-1}}$ -->
      <g transform="translate(18.989375 271.990257) scale(0.12 -0.12)">
       <defs>
        <path id="DejaVuSerif-2212" d="M 678 2259 
L 4684 2259 
L 4684 1753 
L 678 1753 
L 678 2259 
z
" transform="scale(0.015625)"/>
       </defs>
       <use xlink:href="#DejaVuSerif-31" transform="translate(0 0.7125)"/>
       <use xlink:href="#DejaVuSerif-30" transform="translate(63.623047 0.7125)"/>
       <use xlink:href="#DejaVuSerif-2212" transform="translate(128.154453 37.046875) scale(0.7)"/>
       <use xlink:href="#DejaVuSerif-31" transform="translate(186.806797 37.046875) scale(0.7)"/>
      </g>
     </g>
    </g>
    <g id="ytick_2">
     <g id="line2d_17">
      <path d="M 56.169375 156.920681 
L 553.152362 156.920681 
" clip-path="url(#pc9aea98e45)" style="fill: none; stroke: #b0b0b0; stroke-opacity: 0.3; stroke-width: 0.8; stroke-linecap: square"/>
     </g>
     <g id="line2d_18">
      <g>
       <use xlink:href="#m62bc7217f3" x="56.169375" y="156.920681" style="stroke: #000000; stroke-width: 0.8"/>
      </g>
     </g>
     <g id="text_10">
      <!-- $\mathdefault{10^{0}}$ -->
      <g transform="translate(25.949375 161.479744) scale(0.12 -0.12)">
       <use xlink:href="#DejaVuSerif-31" transform="translate(0 0.7125)"/>
       <use xlink:href="#DejaVuSerif-30" transform="translate(63.623047 0.7125)"/>
       <use xlink:href="#DejaVuSerif-30" transform="translate(128.154453 37.046875) scale(0.7)"/>
      </g>
     </g>
    </g>
    <g id="ytick_3">
     <g id="line2d_19">
      <path d="M 56.169375 46.410168 
L 553.152362 46.410168 
" clip-path="url(#pc9aea98e45)" style="fill: none; stroke: #b0b0b0; stroke-opacity: 0.3; stroke-width: 0.8; stroke-linecap: square"/>
     </g>
     <g id="line2d_20">
      <g>
       <use xlink:href="#m62bc7217f3" x="56.169375" y="46.410168" style="stroke: #000000; stroke-width: 0.8"/>
      </g>
     </g>
     <g id="text_11">
      <!-- $\mathdefault{10^{1}}$ -->
      <g transform="translate(25.949375 50.969231) scale(0.12 -0.12)">
       <use xlink:href="#DejaVuSerif-31" transform="translate(0 0.7125)"/>
       <use xlink:href="#DejaVuSerif-30" transform="translate(63.623047 0.7125)"/>
       <use xlink:href="#DejaVuSerif-31" transform="translate(128.154453 37.046875) scale(0.7)"/>
      </g>
     </g>
    </g>
    <g id="ytick_4">
     <g id="line2d_21">
      <path d="M 56.169375 344.674728 
L 553.152362 344.674728 
" clip-path="url(#pc9aea98e45)" style="fill: none; stroke: #b0b0b0; stroke-opacity: 0.3; stroke-width: 0.8; stroke-linecap: square"/>
     </g>
     <g id="line2d_22">
      <defs>
       <path id="mf57a4cb699" d="M 0 0 
L -2 0 
" style="stroke: #000000; stroke-width: 0.4"/>
      </defs>
      <g>
       <use xlink:href="#mf57a4cb699" x="56.169375" y="344.674728" style="stroke: #000000; stroke-width: 0.4"/>
      </g>
     </g>
    </g>
    <g id="ytick_5">
     <g id="line2d_23">
      <path d="M 56.169375 325.214793 
L 553.152362 325.214793 
" clip-path="url(#pc9aea98e45)" style="fill: none; stroke: #b0b0b0; stroke-opacity: 0.3; stroke-width: 0.8; stroke-linecap: square"/>
     </g>
     <g id="line2d_24">
      <g>
       <use xlink:href="#mf57a4cb699" x="56.169375" y="325.214793" style="stroke: #000000; stroke-width: 0.4"/>
      </g>
     </g>
    </g>
    <g id="ytick_6">
     <g id="line2d_25">
      <path d="M 56.169375 311.407749 
L 553.152362 311.407749 
" clip-path="url(#pc9aea98e45)" style="fill: none; stroke: #b0b0b0; stroke-opacity: 0.3; stroke-width: 0.8; stroke-linecap: square"/>
     </g>
     <g id="line2d_26">
      <g>
       <use xlink:href="#mf57a4cb699" x="56.169375" y="311.407749" style="stroke: #000000; stroke-width: 0.4"/>
      </g>
     </g>
    </g>
    <g id="ytick_7">
     <g id="line2d_27">
      <path d="M 56.169375 300.698174 
L 553.152362 300.698174 
" clip-path="url(#pc9aea98e45)" style="fill: none; stroke: #b0b0b0; stroke-opacity: 0.3; stroke-width: 0.8; stroke-linecap: square"/>
     </g>
     <g id="line2d_28">
      <g>
       <use xlink:href="#mf57a4cb699" x="56.169375" y="300.698174" style="stroke: #000000; stroke-width: 0.4"/>
      </g>
     </g>
    </g>
    <g id="ytick_8">
     <g id="line2d_29">
      <path d="M 56.169375 291.947813 
L 553.152362 291.947813 
" clip-path="url(#pc9aea98e45)" style="fill: none; stroke: #b0b0b0; stroke-opacity: 0.3; stroke-width: 0.8; stroke-linecap: square"/>
     </g>
     <g id="line2d_30">
      <g>
       <use xlink:href="#mf57a4cb699" x="56.169375" y="291.947813" style="stroke: #000000; stroke-width: 0.4"/>
      </g>
     </g>
    </g>
    <g id="ytick_9">
     <g id="line2d_31">
      <path d="M 56.169375 284.549489 
L 553.152362 284.549489 
" clip-path="url(#pc9aea98e45)" style="fill: none; stroke: #b0b0b0; stroke-opacity: 0.3; stroke-width: 0.8; stroke-linecap: square"/>
     </g>
     <g id="line2d_32">
      <g>
       <use xlink:href="#mf57a4cb699" x="56.169375" y="284.549489" style="stroke: #000000; stroke-width: 0.4"/>
      </g>
     </g>
    </g>
    <g id="ytick_10">
     <g id="line2d_33">
      <path d="M 56.169375 278.14077 
L 553.152362 278.14077 
" clip-path="url(#pc9aea98e45)" style="fill: none; stroke: #b0b0b0; stroke-opacity: 0.3; stroke-width: 0.8; stroke-linecap: square"/>
     </g>
     <g id="line2d_34">
      <g>
       <use xlink:href="#mf57a4cb699" x="56.169375" y="278.14077" style="stroke: #000000; stroke-width: 0.4"/>
      </g>
     </g>
    </g>
    <g id="ytick_11">
     <g id="line2d_35">
      <path d="M 56.169375 272.487878 
L 553.152362 272.487878 
" clip-path="url(#pc9aea98e45)" style="fill: none; stroke: #b0b0b0; stroke-opacity: 0.3; stroke-width: 0.8; stroke-linecap: square"/>
     </g>
     <g id="line2d_36">
      <g>
       <use xlink:href="#mf57a4cb699" x="56.169375" y="272.487878" style="stroke: #000000; stroke-width: 0.4"/>
      </g>
     </g>
    </g>
    <g id="ytick_12">
     <g id="line2d_37">
      <path d="M 56.169375 234.164215 
L 553.152362 234.164215 
" clip-path="url(#pc9aea98e45)" style="fill: none; stroke: #b0b0b0; stroke-opacity: 0.3; stroke-width: 0.8; stroke-linecap: square"/>
     </g>
     <g id="line2d_38">
      <g>
       <use xlink:href="#mf57a4cb699" x="56.169375" y="234.164215" style="stroke: #000000; stroke-width: 0.4"/>
      </g>
     </g>
    </g>
    <g id="ytick_13">
     <g id="line2d_39">
      <path d="M 56.169375 214.70428 
L 553.152362 214.70428 
" clip-path="url(#pc9aea98e45)" style="fill: none; stroke: #b0b0b0; stroke-opacity: 0.3; stroke-width: 0.8; stroke-linecap: square"/>
     </g>
     <g id="line2d_40">
      <g>
       <use xlink:href="#mf57a4cb699" x="56.169375" y="214.70428" style="stroke: #000000; stroke-width: 0.4"/>
      </g>
     </g>
    </g>
    <g id="ytick_14">
     <g id="line2d_41">
      <path d="M 56.169375 200.897236 
L 553.152362 200.897236 
" clip-path="url(#pc9aea98e45)" style="fill: none; stroke: #b0b0b0; stroke-opacity: 0.3; stroke-width: 0.8; stroke-linecap: square"/>
     </g>
     <g id="line2d_42">
      <g>
       <use xlink:href="#mf57a4cb699" x="56.169375" y="200.897236" style="stroke: #000000; stroke-width: 0.4"/>
      </g>
     </g>
    </g>
    <g id="ytick_15">
     <g id="line2d_43">
      <path d="M 56.169375 190.187661 
L 553.152362 190.187661 
" clip-path="url(#pc9aea98e45)" style="fill: none; stroke: #b0b0b0; stroke-opacity: 0.3; stroke-width: 0.8; stroke-linecap: square"/>
     </g>
     <g id="line2d_44">
      <g>
       <use xlink:href="#mf57a4cb699" x="56.169375" y="190.187661" style="stroke: #000000; stroke-width: 0.4"/>
      </g>
     </g>
    </g>
    <g id="ytick_16">
     <g id="line2d_45">
      <path d="M 56.169375 181.4373 
L 553.152362 181.4373 
" clip-path="url(#pc9aea98e45)" style="fill: none; stroke: #b0b0b0; stroke-opacity: 0.3; stroke-width: 0.8; stroke-linecap: square"/>
     </g>
     <g id="line2d_46">
      <g>
       <use xlink:href="#mf57a4cb699" x="56.169375" y="181.4373" style="stroke: #000000; stroke-width: 0.4"/>
      </g>
     </g>
    </g>
    <g id="ytick_17">
     <g id="line2d_47">
      <path d="M 56.169375 174.038976 
L 553.152362 174.038976 
" clip-path="url(#pc9aea98e45)" style="fill: none; stroke: #b0b0b0; stroke-opacity: 0.3; stroke-width: 0.8; stroke-linecap: square"/>
     </g>
     <g id="line2d_48">
      <g>
       <use xlink:href="#mf57a4cb699" x="56.169375" y="174.038976" style="stroke: #000000; stroke-width: 0.4"/>
      </g>
     </g>
    </g>
    <g id="ytick_18">
     <g id="line2d_49">
      <path d="M 56.169375 167.630257 
L 553.152362 167.630257 
" clip-path="url(#pc9aea98e45)" style="fill: none; stroke: #b0b0b0; stroke-opacity: 0.3; stroke-width: 0.8; stroke-linecap: square"/>
     </g>
     <g id="line2d_50">
      <g>
       <use xlink:href="#mf57a4cb699" x="56.169375" y="167.630257" style="stroke: #000000; stroke-width: 0.4"/>
      </g>
     </g>
    </g>
    <g id="ytick_19">
     <g id="line2d_51">
      <path d="M 56.169375 161.977365 
L 553.152362 161.977365 
" clip-path="url(#pc9aea98e45)" style="fill: none; stroke: #b0b0b0; stroke-opacity: 0.3; stroke-width: 0.8; stroke-linecap: square"/>
     </g>
     <g id="line2d_52">
      <g>
       <use xlink:href="#mf57a4cb699" x="56.169375" y="161.977365" style="stroke: #000000; stroke-width: 0.4"/>
      </g>
     </g>
    </g>
    <g id="ytick_20">
     <g id="line2d_53">
      <path d="M 56.169375 123.653702 
L 553.152362 123.653702 
" clip-path="url(#pc9aea98e45)" style="fill: none; stroke: #b0b0b0; stroke-opacity: 0.3; stroke-width: 0.8; stroke-linecap: square"/>
     </g>
     <g id="line2d_54">
      <g>
       <use xlink:href="#mf57a4cb699" x="56.169375" y="123.653702" style="stroke: #000000; stroke-width: 0.4"/>
      </g>
     </g>
    </g>
    <g id="ytick_21">
     <g id="line2d_55">
      <path d="M 56.169375 104.193767 
L 553.152362 104.193767 
" clip-path="url(#pc9aea98e45)" style="fill: none; stroke: #b0b0b0; stroke-opacity: 0.3; stroke-width: 0.8; stroke-linecap: square"/>
     </g>
     <g id="line2d_56">
      <g>
       <use xlink:href="#mf57a4cb699" x="56.169375" y="104.193767" style="stroke: #000000; stroke-width: 0.4"/>
      </g>
     </g>
    </g>
    <g id="ytick_22">
     <g id="line2d_57">
      <path d="M 56.169375 90.386723 
L 553.152362 90.386723 
" clip-path="url(#pc9aea98e45)" style="fill: none; stroke: #b0b0b0; stroke-opacity: 0.3; stroke-width: 0.8; stroke-linecap: square"/>
     </g>
     <g id="line2d_58">
      <g>
       <use xlink:href="#mf57a4cb699" x="56.169375" y="90.386723" style="stroke: #000000; stroke-width: 0.4"/>
      </g>
     </g>
    </g>
    <g id="ytick_23">
     <g id="line2d_59">
      <path d="M 56.169375 79.677147 
L 553.152362 79.677147 
" clip-path="url(#pc9aea98e45)" style="fill: none; stroke: #b0b0b0; stroke-opacity: 0.3; stroke-width: 0.8; stroke-linecap: square"/>
     </g>
     <g id="line2d_60">
      <g>
       <use xlink:href="#mf57a4cb699" x="56.169375" y="79.677147" style="stroke: #000000; stroke-width: 0.4"/>
      </g>
     </g>
    </g>
    <g id="ytick_24">
     <g id="line2d_61">
      <path d="M 56.169375 70.926787 
L 553.152362 70.926787 
" clip-path="url(#pc9aea98e45)" style="fill: none; stroke: #b0b0b0; stroke-opacity: 0.3; stroke-width: 0.8; stroke-linecap: square"/>
     </g>
     <g id="line2d_62">
      <g>
       <use xlink:href="#mf57a4cb699" x="56.169375" y="70.926787" style="stroke: #000000; stroke-width: 0.4"/>
      </g>
     </g>
    </g>
    <g id="ytick_25">
     <g id="line2d_63">
      <path d="M 56.169375 63.528463 
L 553.152362 63.528463 
" clip-path="url(#pc9aea98e45)" style="fill: none; stroke: #b0b0b0; stroke-opacity: 0.3; stroke-width: 0.8; stroke-linecap: square"/>
     </g>
     <g id="line2d_64">
      <g>
       <use xlink:href="#mf57a4cb699" x="56.169375" y="63.528463" style="stroke: #000000; stroke-width: 0.4"/>
      </g>
     </g>
    </g>
    <g id="ytick_26">
     <g id="line2d_65">
      <path d="M 56.169375 57.119743 
L 553.152362 57.119743 
" clip-path="url(#pc9aea98e45)" style="fill: none; stroke: #b0b0b0; stroke-opacity: 0.3; stroke-width: 0.8; stroke-linecap: square"/>
     </g>
     <g id="line2d_66">
      <g>
       <use xlink:href="#mf57a4cb699" x="56.169375" y="57.119743" style="stroke: #000000; stroke-width: 0.4"/>
      </g>
     </g>
    </g>
    <g id="ytick_27">
     <g id="line2d_67">
      <path d="M 56.169375 51.466852 
L 553.152362 51.466852 
" clip-path="url(#pc9aea98e45)" style="fill: none; stroke: #b0b0b0; stroke-opacity: 0.3; stroke-width: 0.8; stroke-linecap: square"/>
     </g>
     <g id="line2d_68">
      <g>
       <use xlink:href="#mf57a4cb699" x="56.169375" y="51.466852" style="stroke: #000000; stroke-width: 0.4"/>
      </g>
     </g>
    </g>
    <g id="ytick_28">
     <g id="line2d_69">
      <path d="M 56.169375 13.143189 
L 553.152362 13.143189 
" clip-path="url(#pc9aea98e45)" style="fill: none; stroke: #b0b0b0; stroke-opacity: 0.3; stroke-width: 0.8; stroke-linecap: square"/>
     </g>
     <g id="line2d_70">
      <g>
       <use xlink:href="#mf57a4cb699" x="56.169375" y="13.143189" style="stroke: #000000; stroke-width: 0.4"/>
      </g>
     </g>
    </g>
    <g id="text_12">
     <!-- Scale factor -->
     <g transform="translate(12.077813 229.989062) rotate(-90) scale(0.14 -0.14)">
      <defs>
       <path id="DejaVuSerif-53" d="M 594 225 
L 594 1288 
L 953 1284 
Q 969 753 1261 498 
Q 1553 244 2150 244 
Q 2706 244 2998 464 
Q 3291 684 3291 1106 
Q 3291 1444 3114 1625 
Q 2938 1806 2369 1978 
L 1753 2163 
Q 1084 2366 811 2669 
Q 538 2972 538 3500 
Q 538 4094 959 4422 
Q 1381 4750 2144 4750 
Q 2469 4750 2856 4679 
Q 3244 4609 3681 4475 
L 3681 3481 
L 3328 3481 
Q 3275 3975 2998 4195 
Q 2722 4416 2156 4416 
Q 1663 4416 1405 4214 
Q 1147 4013 1147 3628 
Q 1147 3294 1340 3103 
Q 1534 2913 2163 2725 
L 2741 2553 
Q 3375 2363 3645 2067 
Q 3916 1772 3916 1275 
Q 3916 597 3481 253 
Q 3047 -91 2188 -91 
Q 1803 -91 1404 -12 
Q 1006 66 594 225 
z
" transform="scale(0.015625)"/>
       <path id="DejaVuSerif-63" d="M 3291 997 
Q 3169 466 2822 187 
Q 2475 -91 1925 -91 
Q 1200 -91 759 389 
Q 319 869 319 1663 
Q 319 2459 759 2936 
Q 1200 3413 1925 3413 
Q 2241 3413 2553 3339 
Q 2866 3266 3181 3116 
L 3181 2266 
L 2847 2266 
Q 2781 2703 2561 2903 
Q 2341 3103 1931 3103 
Q 1466 3103 1228 2742 
Q 991 2381 991 1663 
Q 991 944 1227 581 
Q 1463 219 1931 219 
Q 2303 219 2525 412 
Q 2747 606 2828 997 
L 3291 997 
z
" transform="scale(0.015625)"/>
       <path id="DejaVuSerif-61" d="M 2547 1044 
L 2547 1747 
L 1806 1747 
Q 1378 1747 1168 1562 
Q 959 1378 959 997 
Q 959 650 1171 447 
Q 1384 244 1747 244 
Q 2106 244 2326 466 
Q 2547 688 2547 1044 
z
M 3122 2075 
L 3122 331 
L 3634 331 
L 3634 0 
L 2547 0 
L 2547 359 
Q 2356 128 2106 18 
Q 1856 -91 1522 -91 
Q 969 -91 644 203 
Q 319 497 319 997 
Q 319 1513 691 1797 
Q 1063 2081 1741 2081 
L 2547 2081 
L 2547 2309 
Q 2547 2688 2317 2895 
Q 2088 3103 1672 3103 
Q 1328 3103 1125 2947 
Q 922 2791 872 2484 
L 575 2484 
L 575 3156 
Q 875 3284 1158 3348 
Q 1441 3413 1709 3413 
Q 2400 3413 2761 3070 
Q 3122 2728 3122 2075 
z
" transform="scale(0.015625)"/>
       <path id="DejaVuSerif-6c" d="M 1313 331 
L 1856 331 
L 1856 0 
L 184 0 
L 184 331 
L 738 331 
L 738 4531 
L 184 4531 
L 184 4863 
L 1313 4863 
L 1313 331 
z
" transform="scale(0.015625)"/>
       <path id="DejaVuSerif-65" d="M 3469 1600 
L 991 1600 
L 991 1575 
Q 991 903 1244 561 
Q 1497 219 1991 219 
Q 2369 219 2611 417 
Q 2853 616 2950 1006 
L 3413 1006 
Q 3275 459 2904 184 
Q 2534 -91 1931 -91 
Q 1203 -91 761 389 
Q 319 869 319 1663 
Q 319 2450 753 2931 
Q 1188 3413 1894 3413 
Q 2647 3413 3050 2948 
Q 3453 2484 3469 1600 
z
M 2791 1931 
Q 2772 2513 2545 2808 
Q 2319 3103 1894 3103 
Q 1497 3103 1269 2806 
Q 1041 2509 991 1931 
L 2791 1931 
z
" transform="scale(0.015625)"/>
       <path id="DejaVuSerif-20" transform="scale(0.015625)"/>
       <path id="DejaVuSerif-66" d="M 2753 4078 
L 2450 4078 
Q 2447 4313 2317 4434 
Q 2188 4556 1941 4556 
Q 1619 4556 1487 4379 
Q 1356 4203 1356 3750 
L 1356 3322 
L 2284 3322 
L 2284 2988 
L 1356 2988 
L 1356 331 
L 2094 331 
L 2094 0 
L 231 0 
L 231 331 
L 781 331 
L 781 2988 
L 231 2988 
L 231 3322 
L 781 3322 
L 781 3738 
Q 781 4294 1070 4578 
Q 1359 4863 1919 4863 
Q 2128 4863 2337 4825 
Q 2547 4788 2753 4709 
L 2753 4078 
z
" transform="scale(0.015625)"/>
       <path id="DejaVuSerif-74" d="M 691 2988 
L 184 2988 
L 184 3322 
L 691 3322 
L 691 4353 
L 1269 4353 
L 1269 3322 
L 2350 3322 
L 2350 2988 
L 1269 2988 
L 1269 878 
Q 1269 456 1350 337 
Q 1431 219 1650 219 
Q 1875 219 1978 351 
Q 2081 484 2088 781 
L 2522 781 
Q 2497 328 2275 118 
Q 2053 -91 1600 -91 
Q 1103 -91 897 129 
Q 691 350 691 878 
L 691 2988 
z
" transform="scale(0.015625)"/>
       <path id="DejaVuSerif-6f" d="M 1925 219 
Q 2388 219 2623 584 
Q 2859 950 2859 1663 
Q 2859 2375 2623 2739 
Q 2388 3103 1925 3103 
Q 1463 3103 1227 2739 
Q 991 2375 991 1663 
Q 991 950 1228 584 
Q 1466 219 1925 219 
z
M 1925 -91 
Q 1200 -91 759 389 
Q 319 869 319 1663 
Q 319 2456 758 2934 
Q 1197 3413 1925 3413 
Q 2653 3413 3092 2934 
Q 3531 2456 3531 1663 
Q 3531 869 3092 389 
Q 2653 -91 1925 -91 
z
" transform="scale(0.015625)"/>
       <path id="DejaVuSerif-72" d="M 3059 3328 
L 3059 2497 
L 2728 2497 
Q 2713 2744 2591 2866 
Q 2469 2988 2234 2988 
Q 1809 2988 1582 2694 
Q 1356 2400 1356 1850 
L 1356 331 
L 2022 331 
L 2022 0 
L 263 0 
L 263 331 
L 781 331 
L 781 2994 
L 231 2994 
L 231 3322 
L 1356 3322 
L 1356 2731 
Q 1525 3078 1790 3245 
Q 2056 3413 2438 3413 
Q 2578 3413 2733 3391 
Q 2888 3369 3059 3328 
z
" transform="scale(0.015625)"/>
      </defs>
      <use xlink:href="#DejaVuSerif-53"/>
      <use xlink:href="#DejaVuSerif-63" transform="translate(68.505859 0)"/>
      <use xlink:href="#DejaVuSerif-61" transform="translate(124.511719 0)"/>
      <use xlink:href="#DejaVuSerif-6c" transform="translate(184.130859 0)"/>
      <use xlink:href="#DejaVuSerif-65" transform="translate(216.113281 0)"/>
      <use xlink:href="#DejaVuSerif-20" transform="translate(275.292969 0)"/>
      <use xlink:href="#DejaVuSerif-66" transform="translate(307.080078 0)"/>
      <use xlink:href="#DejaVuSerif-61" transform="translate(344.091797 0)"/>
      <use xlink:href="#DejaVuSerif-63" transform="translate(403.710938 0)"/>
      <use xlink:href="#DejaVuSerif-74" transform="translate(459.716797 0)"/>
      <use xlink:href="#DejaVuSerif-6f" transform="translate(499.902344 0)"/>
      <use xlink:href="#DejaVuSerif-72" transform="translate(560.107422 0)"/>
     </g>
    </g>
   </g>
   <g id="line2d_71">
    <path d="M 56.169375 156.920681 
L 61.189405 155.520964 
L 66.209435 154.121247 
L 71.229466 152.72153 
L 76.249496 151.321813 
L 81.269526 149.922096 
L 86.289556 148.522379 
L 91.309586 147.122662 
L 96.329616 145.722945 
L 101.349647 144.323228 
L 106.369677 142.923511 
L 111.389707 141.523794 
L 116.409737 140.124077 
L 121.429767 138.72436 
L 126.449797 137.324643 
L 131.469828 135.924925 
L 136.489858 134.525208 
L 141.509888 133.125491 
L 146.529918 131.725774 
L 151.549948 130.326057 
L 156.569979 128.92634 
L 161.590009 127.526623 
L 166.610039 126.126906 
L 171.630069 124.727189 
L 176.650099 123.327472 
L 181.670129 121.927755 
L 186.69016 120.528038 
L 191.71019 119.128321 
L 196.73022 117.728604 
L 201.75025 116.328887 
L 206.77028 114.92917 
L 211.79031 113.529453 
L 216.810341 112.129736 
L 221.830371 110.730019 
L 226.850401 109.330302 
L 231.870431 107.930584 
L 236.890461 106.530867 
L 241.910492 105.13115 
L 246.930522 103.731433 
L 251.950552 102.331716 
L 256.970582 100.931999 
L 261.990612 99.532282 
L 267.010642 98.132565 
L 272.030673 96.732848 
L 277.050703 95.333131 
L 282.070733 93.933414 
L 287.090763 92.533697 
L 292.110793 91.13398 
L 297.130823 89.734263 
L 302.150854 88.334546 
L 307.170884 86.934829 
L 312.190914 85.535112 
L 317.210944 84.135395 
L 322.230974 82.735678 
L 327.251005 81.33596 
L 332.271035 79.936243 
L 337.291065 78.536526 
L 342.311095 77.136809 
L 347.331125 75.737092 
L 352.351155 74.337375 
L 357.371186 72.937658 
L 362.391216 71.537941 
L 367.411246 70.138224 
L 372.431276 68.738507 
L 377.451306 67.33879 
L 382.471336 65.939073 
L 387.491367 64.539356 
L 392.511397 63.139639 
L 397.531427 61.739922 
L 402.551457 60.340205 
L 407.571487 58.940488 
L 412.591518 57.540771 
L 417.611548 56.141054 
L 422.631578 54.741337 
L 427.651608 53.341619 
L 432.671638 51.941902 
L 437.691668 50.542185 
L 442.711699 49.142468 
L 447.731729 47.742751 
L 452.751759 46.343034 
L 457.771789 44.943317 
L 462.791819 43.5436 
L 467.811849 42.143883 
L 472.83188 40.744166 
L 477.85191 39.344449 
L 482.87194 37.944732 
L 487.89197 36.545015 
L 492.912 35.145298 
L 497.932031 33.745581 
L 502.952061 32.345864 
L 507.972091 30.946147 
L 512.992121 29.54643 
L 518.012151 28.146713 
L 523.032181 26.746995 
L 528.052212 25.347278 
L 533.072242 23.947561 
L 538.092272 22.547844 
L 543.112302 21.148127 
L 548.132332 19.74841 
L 553.152362 18.348693 
" clip-path="url(#pc9aea98e45)" style="fill: none; stroke: #0000ff; stroke-width: 2.5; stroke-linecap: square"/>
   </g>
   <g id="line2d_72">
    <path d="M 56.169375 156.920681 
L 61.189405 158.936862 
L 66.209435 160.953042 
L 71.229466 162.969223 
L 76.249496 164.985403 
L 81.269526 167.001584 
L 86.289556 169.017765 
L 91.309586 171.033945 
L 96.329616 173.050126 
L 101.349647 175.066306 
L 106.369677 177.082487 
L 111.389707 179.098667 
L 116.409737 181.114848 
L 121.429767 183.131029 
L 126.449797 185.147209 
L 131.469828 187.16339 
L 136.489858 189.17957 
L 141.509888 191.195751 
L 146.529918 193.211931 
L 151.549948 195.228112 
L 156.569979 197.244292 
L 161.590009 199.260473 
L 166.610039 201.276654 
L 171.630069 203.292834 
L 176.650099 205.309015 
L 181.670129 207.325195 
L 186.69016 209.341376 
L 191.71019 211.357556 
L 196.73022 213.373737 
L 201.75025 215.389918 
L 206.77028 217.406098 
L 211.79031 219.422279 
L 216.810341 221.438459 
L 221.830371 223.45464 
L 226.850401 225.47082 
L 231.870431 227.487001 
L 236.890461 229.503181 
L 241.910492 231.519362 
L 246.930522 233.535543 
L 251.950552 235.551723 
L 256.970582 237.567904 
L 261.990612 239.584084 
L 267.010642 241.600265 
L 272.030673 243.616445 
L 277.050703 245.632626 
L 282.070733 247.648807 
L 287.090763 249.664987 
L 292.110793 251.681168 
L 297.130823 253.697348 
L 302.150854 255.713529 
L 307.170884 257.729709 
L 312.190914 259.74589 
L 317.210944 261.76207 
L 322.230974 263.778251 
L 327.251005 265.794432 
L 332.271035 267.810612 
L 337.291065 269.826793 
L 342.311095 271.842973 
L 347.331125 273.859154 
L 352.351155 275.875334 
L 357.371186 277.891515 
L 362.391216 279.907695 
L 367.411246 281.923876 
L 372.431276 283.940057 
L 377.451306 285.956237 
L 382.471336 287.972418 
L 387.491367 289.988598 
L 392.511397 292.004779 
L 397.531427 294.020959 
L 402.551457 296.03714 
L 407.571487 298.053321 
L 412.591518 300.069501 
L 417.611548 302.085682 
L 422.631578 304.101862 
L 427.651608 306.118043 
L 432.671638 308.134223 
L 437.691668 310.150404 
L 442.711699 312.166584 
L 447.731729 314.182765 
L 452.751759 316.198946 
L 457.771789 318.215126 
L 462.791819 320.231307 
L 467.811849 322.247487 
L 472.83188 324.263668 
L 477.85191 326.279848 
L 482.87194 328.296029 
L 487.89197 330.31221 
L 492.912 332.32839 
L 497.932031 334.344571 
L 502.952061 336.360751 
L 507.972091 338.376932 
L 512.992121 340.393112 
L 518.012151 342.409293 
L 523.032181 344.425473 
L 528.052212 346.441654 
L 533.072242 348.457835 
L 538.092272 350.474015 
L 543.112302 352.490196 
L 548.132332 354.506376 
L 553.152362 356.522557 
" clip-path="url(#pc9aea98e45)" style="fill: none; stroke: #ff0000; stroke-width: 2.5; stroke-linecap: square"/>
   </g>
   <g id="line2d_73">
    <path d="M 56.169375 156.920681 
L 61.189405 157.537145 
L 66.209435 158.153608 
L 71.229466 158.770072 
L 76.249496 159.386535 
L 81.269526 160.002999 
L 86.289556 160.619462 
L 91.309586 161.235926 
L 96.329616 161.852389 
L 101.349647 162.468853 
L 106.369677 163.085316 
L 111.389707 163.70178 
L 116.409737 164.318243 
L 121.429767 164.934707 
L 126.449797 165.55117 
L 131.469828 166.167634 
L 136.489858 166.784097 
L 141.509888 167.400561 
L 146.529918 168.017024 
L 151.549948 168.633488 
L 156.569979 169.249951 
L 161.590009 169.866415 
L 166.610039 170.482878 
L 171.630069 171.099342 
L 176.650099 171.715805 
L 181.670129 172.332269 
L 186.69016 172.948733 
L 191.71019 173.565196 
L 196.73022 174.18166 
L 201.75025 174.798123 
L 206.77028 175.414587 
L 211.79031 176.03105 
L 216.810341 176.647514 
L 221.830371 177.263977 
L 226.850401 177.880441 
L 231.870431 178.496904 
L 236.890461 179.113368 
L 241.910492 179.729831 
L 246.930522 180.346295 
L 251.950552 180.962758 
L 256.970582 181.579222 
L 261.990612 182.195685 
L 267.010642 182.812149 
L 272.030673 183.428612 
L 277.050703 184.045076 
L 282.070733 184.661539 
L 287.090763 185.278003 
L 292.110793 185.894466 
L 297.130823 186.51093 
L 302.150854 187.127393 
L 307.170884 187.743857 
L 312.190914 188.36032 
L 317.210944 188.976784 
L 322.230974 189.593247 
L 327.251005 190.209711 
L 332.271035 190.826174 
L 337.291065 191.442638 
L 342.311095 192.059101 
L 347.331125 192.675565 
L 352.351155 193.292028 
L 357.371186 193.908492 
L 362.391216 194.524955 
L 367.411246 195.141419 
L 372.431276 195.757882 
L 377.451306 196.374346 
L 382.471336 196.990809 
L 387.491367 197.607273 
L 392.511397 198.223736 
L 397.531427 198.8402 
L 402.551457 199.456663 
L 407.571487 200.073127 
L 412.591518 200.68959 
L 417.611548 201.306054 
L 422.631578 201.922517 
L 427.651608 202.538981 
L 432.671638 203.155445 
L 437.691668 203.771908 
L 442.711699 204.388372 
L 447.731729 205.004835 
L 452.751759 205.621299 
L 457.771789 206.237762 
L 462.791819 206.854226 
L 467.811849 207.470689 
L 472.83188 208.087153 
L 477.85191 208.703616 
L 482.87194 209.32008 
L 487.89197 209.936543 
L 492.912 210.553007 
L 497.932031 211.16947 
L 502.952061 211.785934 
L 507.972091 212.402397 
L 512.992121 213.018861 
L 518.012151 213.635324 
L 523.032181 214.251788 
L 528.052212 214.868251 
L 533.072242 215.484715 
L 538.092272 216.101178 
L 543.112302 216.717642 
L 548.132332 217.334105 
L 553.152362 217.950569 
" clip-path="url(#pc9aea98e45)" style="fill: none; stroke: #008000; stroke-width: 2.5; stroke-linecap: square"/>
   </g>
   <g id="line2d_74">
    <path d="M 56.169375 156.920681 
L 553.152362 156.920681 
" clip-path="url(#pc9aea98e45)" style="fill: none; stroke-dasharray: 3.7,1.6; stroke-dashoffset: 0; stroke: #808080; stroke-opacity: 0.7"/>
   </g>
   <g id="patch_3">
    <path d="M 56.169375 373.43125 
L 56.169375 1.44 
" style="fill: none; stroke: #000000; stroke-linejoin: miter; stroke-linecap: square"/>
   </g>
   <g id="patch_4">
    <path d="M 553.152362 373.43125 
L 553.152362 1.44 
" style="fill: none; stroke: #000000; stroke-linejoin: miter; stroke-linecap: square"/>
   </g>
   <g id="patch_5">
    <path d="M 56.169375 373.43125 
L 553.152362 373.43125 
" style="fill: none; stroke: #000000; stroke-linejoin: miter; stroke-linecap: square"/>
   </g>
   <g id="patch_6">
    <path d="M 56.169375 1.44 
L 553.152362 1.44 
" style="fill: none; stroke: #000000; stroke-linejoin: miter; stroke-linecap: square"/>
   </g>
   <g id="PathCollection_1">
    <defs>
     <path id="m52a2d2297e" d="M 0 3.535534 
C 0.937635 3.535534 1.836992 3.163008 2.5 2.5 
C 3.163008 1.836992 3.535534 0.937635 3.535534 0 
C 3.535534 -0.937635 3.163008 -1.836992 2.5 -2.5 
C 1.836992 -3.163008 0.937635 -3.535534 0 -3.535534 
C -0.937635 -3.535534 -1.836992 -3.163008 -2.5 -2.5 
C -3.163008 -1.836992 -3.535534 -0.937635 -3.535534 0 
C -3.535534 0.937635 -3.163008 1.836992 -2.5 2.5 
C -1.836992 3.163008 -0.937635 3.535534 0 3.535534 
z
" style="stroke: #0000ff; stroke-width: 0.24"/>
    </defs>
    <g clip-path="url(#pc9aea98e45)">
     <use xlink:href="#m52a2d2297e" x="56.169375" y="156.920681" style="fill: #0000ff; stroke: #0000ff; stroke-width: 0.24"/>
     <use xlink:href="#m52a2d2297e" x="138.999873" y="133.82535" style="fill: #0000ff; stroke: #0000ff; stroke-width: 0.24"/>
     <use xlink:href="#m52a2d2297e" x="221.830371" y="110.730019" style="fill: #0000ff; stroke: #0000ff; stroke-width: 0.24"/>
     <use xlink:href="#m52a2d2297e" x="304.660869" y="87.634687" style="fill: #0000ff; stroke: #0000ff; stroke-width: 0.24"/>
     <use xlink:href="#m52a2d2297e" x="387.491367" y="64.539356" style="fill: #0000ff; stroke: #0000ff; stroke-width: 0.24"/>
     <use xlink:href="#m52a2d2297e" x="470.321865" y="41.444025" style="fill: #0000ff; stroke: #0000ff; stroke-width: 0.24"/>
     <use xlink:href="#m52a2d2297e" x="553.152362" y="18.348693" style="fill: #0000ff; stroke: #0000ff; stroke-width: 0.24"/>
    </g>
   </g>
   <g id="PathCollection_2">
    <defs>
     <path id="me9e27cc14d" d="M 0 3.535534 
C 0.937635 3.535534 1.836992 3.163008 2.5 2.5 
C 3.163008 1.836992 3.535534 0.937635 3.535534 0 
C 3.535534 -0.937635 3.163008 -1.836992 2.5 -2.5 
C 1.836992 -3.163008 0.937635 -3.535534 0 -3.535534 
C -0.937635 -3.535534 -1.836992 -3.163008 -2.5 -2.5 
C -3.163008 -1.836992 -3.535534 -0.937635 -3.535534 0 
C -3.535534 0.937635 -3.163008 1.836992 -2.5 2.5 
C -1.836992 3.163008 -0.937635 3.535534 0 3.535534 
z
" style="stroke: #ff0000; stroke-width: 0.24"/>
    </defs>
    <g clip-path="url(#pc9aea98e45)">
     <use xlink:href="#me9e27cc14d" x="56.169375" y="156.920681" style="fill: #ff0000; stroke: #ff0000; stroke-width: 0.24"/>
     <use xlink:href="#me9e27cc14d" x="138.999873" y="190.187661" style="fill: #ff0000; stroke: #ff0000; stroke-width: 0.24"/>
     <use xlink:href="#me9e27cc14d" x="221.830371" y="223.45464" style="fill: #ff0000; stroke: #ff0000; stroke-width: 0.24"/>
     <use xlink:href="#me9e27cc14d" x="304.660869" y="256.721619" style="fill: #ff0000; stroke: #ff0000; stroke-width: 0.24"/>
     <use xlink:href="#me9e27cc14d" x="387.491367" y="289.988598" style="fill: #ff0000; stroke: #ff0000; stroke-width: 0.24"/>
     <use xlink:href="#me9e27cc14d" x="470.321865" y="323.255578" style="fill: #ff0000; stroke: #ff0000; stroke-width: 0.24"/>
     <use xlink:href="#me9e27cc14d" x="553.152362" y="356.522557" style="fill: #ff0000; stroke: #ff0000; stroke-width: 0.24"/>
    </g>
   </g>
   <g id="PathCollection_3">
    <defs>
     <path id="m133c8d5e8d" d="M 0 3.535534 
C 0.937635 3.535534 1.836992 3.163008 2.5 2.5 
C 3.163008 1.836992 3.535534 0.937635 3.535534 0 
C 3.535534 -0.937635 3.163008 -1.836992 2.5 -2.5 
C 1.836992 -3.163008 0.937635 -3.535534 0 -3.535534 
C -0.937635 -3.535534 -1.836992 -3.163008 -2.5 -2.5 
C -3.163008 -1.836992 -3.535534 -0.937635 -3.535534 0 
C -3.535534 0.937635 -3.163008 1.836992 -2.5 2.5 
C -1.836992 3.163008 -0.937635 3.535534 0 3.535534 
z
" style="stroke: #008000; stroke-width: 0.24"/>
    </defs>
    <g clip-path="url(#pc9aea98e45)">
     <use xlink:href="#m133c8d5e8d" x="56.169375" y="156.920681" style="fill: #008000; stroke: #008000; stroke-width: 0.24"/>
     <use xlink:href="#m133c8d5e8d" x="138.999873" y="167.092329" style="fill: #008000; stroke: #008000; stroke-width: 0.24"/>
     <use xlink:href="#m133c8d5e8d" x="221.830371" y="177.263977" style="fill: #008000; stroke: #008000; stroke-width: 0.24"/>
     <use xlink:href="#m133c8d5e8d" x="304.660869" y="187.435625" style="fill: #008000; stroke: #008000; stroke-width: 0.24"/>
     <use xlink:href="#m133c8d5e8d" x="387.491367" y="197.607273" style="fill: #008000; stroke: #008000; stroke-width: 0.24"/>
     <use xlink:href="#m133c8d5e8d" x="470.321865" y="207.778921" style="fill: #008000; stroke: #008000; stroke-width: 0.24"/>
     <use xlink:href="#m133c8d5e8d" x="553.152362" y="217.950569" style="fill: #008000; stroke: #008000; stroke-width: 0.24"/>
    </g>
   </g>
   <g id="legend_1">
    <g id="patch_7">
     <path d="M 389.352362 215.8025 
L 544.752363 215.8025 
Q 547.152362 215.8025 547.152362 213.4025 
L 547.152362 161.46875 
Q 547.152362 159.06875 544.752363 159.06875 
L 389.352362 159.06875 
Q 386.952362 159.06875 386.952362 161.46875 
L 386.952362 213.4025 
Q 386.952362 215.8025 389.352362 215.8025 
z
" style="fill: #ffffff; opacity: 0.8; stroke: #cccccc; stroke-width: 0.24; stroke-linejoin: miter"/>
    </g>
    <g id="line2d_75">
     <path d="M 391.752363 168.90875 
L 403.752363 168.90875 
L 415.752363 168.90875 
" style="fill: none; stroke: #0000ff; stroke-width: 2.5; stroke-linecap: square"/>
    </g>
    <g id="text_13">
     <!-- $\varphi^\sigma$ (expansion) -->
     <g transform="translate(425.352363 173.10875) scale(0.12 -0.12)">
      <defs>
       <path id="DejaVuSans-Oblique-3c6" d="M 2969 3034 
Q 2766 3034 2675 2581 
L 2259 438 
Q 2553 438 2916 763 
Q 3244 1053 3375 1750 
Q 3497 2400 3300 2750 
Q 3138 3034 2969 3034 
z
M 3063 3525 
Q 3513 3525 3819 3113 
Q 4147 2672 3981 1750 
Q 3828 903 3291 400 
Q 2784 -75 2159 -75 
L 1916 -1331 
L 1344 -1331 
L 1588 -78 
Q 963 -78 641 400 
Q 309 888 475 1747 
Q 647 2641 1166 3097 
Q 1556 3438 2084 3525 
L 1984 3016 
Q 1766 2944 1538 2700 
Q 1194 2341 1081 1747 
Q 963 1116 1156 756 
Q 1334 434 1688 434 
L 2103 2581 
Q 2288 3525 3063 3525 
z
" transform="scale(0.015625)"/>
       <path id="DejaVuSerif-28" d="M 2041 -997 
Q 1281 -656 893 83 
Q 506 822 506 1931 
Q 506 3044 893 3783 
Q 1281 4522 2041 4863 
L 2041 4556 
Q 1559 4225 1350 3623 
Q 1141 3022 1141 1931 
Q 1141 844 1350 242 
Q 1559 -359 2041 -691 
L 2041 -997 
z
" transform="scale(0.015625)"/>
       <path id="DejaVuSerif-78" d="M 1863 2028 
L 2559 2988 
L 2113 2988 
L 2113 3322 
L 3391 3322 
L 3391 2988 
L 2950 2988 
L 2059 1759 
L 3097 331 
L 3531 331 
L 3531 0 
L 1997 0 
L 1997 331 
L 2419 331 
L 1697 1325 
L 972 331 
L 1403 331 
L 1403 0 
L 141 0 
L 141 331 
L 581 331 
L 1497 1594 
L 488 2988 
L 78 2988 
L 78 3322 
L 1563 3322 
L 1563 2988 
L 1166 2988 
L 1863 2028 
z
" transform="scale(0.015625)"/>
       <path id="DejaVuSerif-70" d="M 1313 1825 
L 1313 1497 
Q 1313 897 1542 583 
Q 1772 269 2209 269 
Q 2650 269 2876 622 
Q 3103 975 3103 1663 
Q 3103 2353 2876 2703 
Q 2650 3053 2209 3053 
Q 1772 3053 1542 2737 
Q 1313 2422 1313 1825 
z
M 738 2988 
L 184 2988 
L 184 3322 
L 1313 3322 
L 1313 2803 
Q 1481 3116 1742 3264 
Q 2003 3413 2388 3413 
Q 3000 3413 3387 2928 
Q 3775 2444 3775 1663 
Q 3775 881 3387 395 
Q 3000 -91 2388 -91 
Q 2003 -91 1742 57 
Q 1481 206 1313 519 
L 1313 -997 
L 1856 -997 
L 1856 -1331 
L 184 -1331 
L 184 -997 
L 738 -997 
L 738 2988 
z
" transform="scale(0.015625)"/>
       <path id="DejaVuSerif-6e" d="M 263 0 
L 263 331 
L 781 331 
L 781 2988 
L 231 2988 
L 231 3322 
L 1356 3322 
L 1356 2731 
Q 1516 3069 1770 3241 
Q 2025 3413 2363 3413 
Q 2913 3413 3172 3097 
Q 3431 2781 3431 2113 
L 3431 331 
L 3944 331 
L 3944 0 
L 2356 0 
L 2356 331 
L 2853 331 
L 2853 1931 
Q 2853 2541 2703 2767 
Q 2553 2994 2175 2994 
Q 1775 2994 1565 2701 
Q 1356 2409 1356 1850 
L 1356 331 
L 1856 331 
L 1856 0 
L 263 0 
z
" transform="scale(0.015625)"/>
       <path id="DejaVuSerif-73" d="M 359 184 
L 359 959 
L 691 959 
Q 703 588 923 403 
Q 1144 219 1575 219 
Q 1963 219 2166 364 
Q 2369 509 2369 788 
Q 2369 1006 2220 1140 
Q 2072 1275 1594 1428 
L 1178 1569 
Q 750 1706 558 1912 
Q 366 2119 366 2438 
Q 366 2894 700 3153 
Q 1034 3413 1625 3413 
Q 1888 3413 2178 3344 
Q 2469 3275 2778 3144 
L 2778 2419 
L 2447 2419 
Q 2434 2741 2221 2922 
Q 2009 3103 1644 3103 
Q 1281 3103 1095 2975 
Q 909 2847 909 2591 
Q 909 2381 1050 2254 
Q 1191 2128 1613 1997 
L 2069 1856 
Q 2541 1709 2748 1489 
Q 2956 1269 2956 922 
Q 2956 450 2595 179 
Q 2234 -91 1600 -91 
Q 1278 -91 972 -22 
Q 666 47 359 184 
z
" transform="scale(0.015625)"/>
       <path id="DejaVuSerif-69" d="M 622 4353 
Q 622 4497 726 4603 
Q 831 4709 978 4709 
Q 1122 4709 1226 4603 
Q 1331 4497 1331 4353 
Q 1331 4206 1228 4103 
Q 1125 4000 978 4000 
Q 831 4000 726 4103 
Q 622 4206 622 4353 
z
M 1356 331 
L 1900 331 
L 1900 0 
L 231 0 
L 231 331 
L 781 331 
L 781 2988 
L 231 2988 
L 231 3322 
L 1356 3322 
L 1356 331 
z
" transform="scale(0.015625)"/>
       <path id="DejaVuSerif-29" d="M 453 -997 
L 453 -691 
Q 934 -359 1145 242 
Q 1356 844 1356 1931 
Q 1356 3022 1145 3623 
Q 934 4225 453 4556 
L 453 4863 
Q 1216 4522 1603 3783 
Q 1991 3044 1991 1931 
Q 1991 822 1603 83 
Q 1216 -656 453 -997 
z
" transform="scale(0.015625)"/>
      </defs>
      <use xlink:href="#DejaVuSans-Oblique-3c6" transform="translate(0 0.404687)"/>
      <use xlink:href="#DejaVuSans-Oblique-3c3" transform="translate(70.48763 38.685937) scale(0.7)"/>
      <use xlink:href="#DejaVuSerif-20" transform="translate(117.58724 0.404687)"/>
      <use xlink:href="#DejaVuSerif-28" transform="translate(149.374349 0.404687)"/>
      <use xlink:href="#DejaVuSerif-65" transform="translate(188.388021 0.404687)"/>
      <use xlink:href="#DejaVuSerif-78" transform="translate(247.567708 0.404687)"/>
      <use xlink:href="#DejaVuSerif-70" transform="translate(303.964193 0.404687)"/>
      <use xlink:href="#DejaVuSerif-61" transform="translate(367.977865 0.404687)"/>
      <use xlink:href="#DejaVuSerif-6e" transform="translate(427.597005 0.404687)"/>
      <use xlink:href="#DejaVuSerif-73" transform="translate(492.001302 0.404687)"/>
      <use xlink:href="#DejaVuSerif-69" transform="translate(543.319661 0.404687)"/>
      <use xlink:href="#DejaVuSerif-6f" transform="translate(575.302083 0.404687)"/>
      <use xlink:href="#DejaVuSerif-6e" transform="translate(635.507161 0.404687)"/>
      <use xlink:href="#DejaVuSerif-29" transform="translate(699.911458 0.404687)"/>
     </g>
    </g>
    <g id="line2d_76">
     <path d="M 391.752363 186.546875 
L 403.752363 186.546875 
L 415.752363 186.546875 
" style="fill: none; stroke: #ff0000; stroke-width: 2.5; stroke-linecap: square"/>
    </g>
    <g id="text_14">
     <!-- $(1/2)^\sigma$ (contraction) -->
     <g transform="translate(425.352363 190.746875) scale(0.12 -0.12)">
      <defs>
       <path id="DejaVuSans-28" d="M 1984 4856 
Q 1566 4138 1362 3434 
Q 1159 2731 1159 2009 
Q 1159 1288 1364 580 
Q 1569 -128 1984 -844 
L 1484 -844 
Q 1016 -109 783 600 
Q 550 1309 550 2009 
Q 550 2706 781 3412 
Q 1013 4119 1484 4856 
L 1984 4856 
z
" transform="scale(0.015625)"/>
       <path id="DejaVuSans-31" d="M 794 531 
L 1825 531 
L 1825 4091 
L 703 3866 
L 703 4441 
L 1819 4666 
L 2450 4666 
L 2450 531 
L 3481 531 
L 3481 0 
L 794 0 
L 794 531 
z
" transform="scale(0.015625)"/>
       <path id="DejaVuSans-2f" d="M 1625 4666 
L 2156 4666 
L 531 -594 
L 0 -594 
L 1625 4666 
z
" transform="scale(0.015625)"/>
       <path id="DejaVuSans-32" d="M 1228 531 
L 3431 531 
L 3431 0 
L 469 0 
L 469 531 
Q 828 903 1448 1529 
Q 2069 2156 2228 2338 
Q 2531 2678 2651 2914 
Q 2772 3150 2772 3378 
Q 2772 3750 2511 3984 
Q 2250 4219 1831 4219 
Q 1534 4219 1204 4116 
Q 875 4013 500 3803 
L 500 4441 
Q 881 4594 1212 4672 
Q 1544 4750 1819 4750 
Q 2544 4750 2975 4387 
Q 3406 4025 3406 3419 
Q 3406 3131 3298 2873 
Q 3191 2616 2906 2266 
Q 2828 2175 2409 1742 
Q 1991 1309 1228 531 
z
" transform="scale(0.015625)"/>
       <path id="DejaVuSans-29" d="M 513 4856 
L 1013 4856 
Q 1481 4119 1714 3412 
Q 1947 2706 1947 2009 
Q 1947 1309 1714 600 
Q 1481 -109 1013 -844 
L 513 -844 
Q 928 -128 1133 580 
Q 1338 1288 1338 2009 
Q 1338 2731 1133 3434 
Q 928 4138 513 4856 
z
" transform="scale(0.015625)"/>
      </defs>
      <use xlink:href="#DejaVuSans-28" transform="translate(0 0.404687)"/>
      <use xlink:href="#DejaVuSans-31" transform="translate(39.013672 0.404687)"/>
      <use xlink:href="#DejaVuSans-2f" transform="translate(102.636719 0.404687)"/>
      <use xlink:href="#DejaVuSans-32" transform="translate(132.703125 0.404687)"/>
      <use xlink:href="#DejaVuSans-29" transform="translate(196.326172 0.404687)"/>
      <use xlink:href="#DejaVuSans-Oblique-3c3" transform="translate(236.296875 38.685937) scale(0.7)"/>
      <use xlink:href="#DejaVuSerif-20" transform="translate(283.396484 0.404687)"/>
      <use xlink:href="#DejaVuSerif-28" transform="translate(315.183594 0.404687)"/>
      <use xlink:href="#DejaVuSerif-63" transform="translate(354.197266 0.404687)"/>
      <use xlink:href="#DejaVuSerif-6f" transform="translate(410.203125 0.404687)"/>
      <use xlink:href="#DejaVuSerif-6e" transform="translate(470.408203 0.404687)"/>
      <use xlink:href="#DejaVuSerif-74" transform="translate(534.8125 0.404687)"/>
      <use xlink:href="#DejaVuSerif-72" transform="translate(574.998047 0.404687)"/>
      <use xlink:href="#DejaVuSerif-61" transform="translate(622.800781 0.404687)"/>
      <use xlink:href="#DejaVuSerif-63" transform="translate(682.419922 0.404687)"/>
      <use xlink:href="#DejaVuSerif-74" transform="translate(738.425781 0.404687)"/>
      <use xlink:href="#DejaVuSerif-69" transform="translate(778.611328 0.404687)"/>
      <use xlink:href="#DejaVuSerif-6f" transform="translate(810.59375 0.404687)"/>
      <use xlink:href="#DejaVuSerif-6e" transform="translate(870.798828 0.404687)"/>
      <use xlink:href="#DejaVuSerif-29" transform="translate(935.203125 0.404687)"/>
     </g>
    </g>
    <g id="line2d_77">
     <path d="M 391.752363 204.2825 
L 403.752363 204.2825 
L 415.752363 204.2825 
" style="fill: none; stroke: #008000; stroke-width: 2.5; stroke-linecap: square"/>
    </g>
    <g id="text_15">
     <!-- $(\varphi/2)^\sigma$ (balance) -->
     <g transform="translate(425.352363 208.4825) scale(0.12 -0.12)">
      <defs>
       <path id="DejaVuSerif-62" d="M 738 331 
L 738 4531 
L 184 4531 
L 184 4863 
L 1313 4863 
L 1313 2803 
Q 1481 3116 1742 3264 
Q 2003 3413 2388 3413 
Q 3000 3413 3387 2928 
Q 3775 2444 3775 1663 
Q 3775 881 3387 395 
Q 3000 -91 2388 -91 
Q 2003 -91 1742 57 
Q 1481 206 1313 519 
L 1313 0 
L 184 0 
L 184 331 
L 738 331 
z
M 1313 1497 
Q 1313 897 1542 583 
Q 1772 269 2209 269 
Q 2650 269 2876 622 
Q 3103 975 3103 1663 
Q 3103 2353 2876 2703 
Q 2650 3053 2209 3053 
Q 1772 3053 1542 2737 
Q 1313 2422 1313 1825 
L 1313 1497 
z
" transform="scale(0.015625)"/>
      </defs>
      <use xlink:href="#DejaVuSans-28" transform="translate(0 0.404687)"/>
      <use xlink:href="#DejaVuSans-Oblique-3c6" transform="translate(39.013672 0.404687)"/>
      <use xlink:href="#DejaVuSans-2f" transform="translate(104.980469 0.404687)"/>
      <use xlink:href="#DejaVuSans-32" transform="translate(135.046875 0.404687)"/>
      <use xlink:href="#DejaVuSans-29" transform="translate(198.669922 0.404687)"/>
      <use xlink:href="#DejaVuSans-Oblique-3c3" transform="translate(238.640625 38.685937) scale(0.7)"/>
      <use xlink:href="#DejaVuSerif-20" transform="translate(285.740234 0.404687)"/>
      <use xlink:href="#DejaVuSerif-28" transform="translate(317.527344 0.404687)"/>
      <use xlink:href="#DejaVuSerif-62" transform="translate(356.541016 0.404687)"/>
      <use xlink:href="#DejaVuSerif-61" transform="translate(420.554688 0.404687)"/>
      <use xlink:href="#DejaVuSerif-6c" transform="translate(480.173828 0.404687)"/>
      <use xlink:href="#DejaVuSerif-61" transform="translate(512.15625 0.404687)"/>
      <use xlink:href="#DejaVuSerif-6e" transform="translate(571.775391 0.404687)"/>
      <use xlink:href="#DejaVuSerif-63" transform="translate(636.179688 0.404687)"/>
      <use xlink:href="#DejaVuSerif-65" transform="translate(692.185547 0.404687)"/>
      <use xlink:href="#DejaVuSerif-29" transform="translate(751.365234 0.404687)"/>
     </g>
    </g>
   </g>
  </g>
 </g>
 <defs>
  <clipPath id="pc9aea98e45">
   <rect x="56.169375" y="1.44" width="496.982987" height="371.99125"/>
  </clipPath>
 </defs>
</svg>
